{
  "accessors": [
    {
      "bufferView": 2,
      "componentType": 5126,
      "count": 5154,
      "max": [
        1.1072040796279907,
        0.27063795924186707,
        2.17425537109375
      ],
      "min": [
        -1.1072040796279907,
        -2.1588802337646484,
        -0.8252907991409302
      ],
      "type": "VEC3"
    },
    {
      "bufferView": 2,
      "byteOffset": 61848,
      "componentType": 5126,
      "count": 5154,
      "max": [
        1.0,
        1.0,
        1.0
      ],
      "min": [
        -1.0,
        -1.0,
        -1.0
      ],
      "type": "VEC3"
    },
    {
      "bufferView": 3,
      "componentType": 5126,
      "count": 5154,
      "max": [
        1.0,
        1.0,
        1.0,
        1.0
      ],
      "min": [
        -1.0,
        -1.0,
        -0.9999988675117493,
        -1.0
      ],
      "type": "VEC4"
    },
    {
      "bufferView": 1,
      "componentType": 5126,
      "count": 5154,
      "max": [
        0.9971756339073181,
        0.9991613626480103
      ],
      "min": [
        0.0011734920553863049,
        0.0008099079132080078
      ],
      "type": "VEC2"
    },
    {
      "bufferView": 1,
      "byteOffset": 41232,
      "componentType": 5126,
      "count": 5154,
      "max": [
        0.9971756339073181,
        0.9991613626480103
      ],
      "min": [
        0.0011734920553863049,
        0.0008099079132080078
      ],
      "type": "VEC2"
    },
    {
      "bufferView": 1,
      "byteOffset": 82464,
      "componentType": 5126,
      "count": 5154,
      "max": [
        0.9971756339073181,
        0.9991613626480103
      ],
      "min": [
        0.0011734920553863049,
        0.0008099079132080078
      ],
      "type": "VEC2"
    },
    {
      "bufferView": 1,
      "byteOffset": 123696,
      "componentType": 5126,
      "count": 5154,
      "max": [
        0.9971756339073181,
        0.9991613626480103
      ],
      "min": [
        0.0011734920553863049,
        0.0008099079132080078
      ],
      "type": "VEC2"
    },
    {
      "bufferView": 0,
      "componentType": 5125,
      "count": 14382,
      "type": "SCALAR"
    }
  ],
  "asset": {
    "extras": {
      "author": "Edwin (https://sketchfab.com/edwinwagha)",
      "license": "CC-BY-4.0 (http://creativecommons.org/licenses/by/4.0/)",
      "source": "https://sketchfab.com/3d-models/patient-dock-terminal-c35d6be123d64624a5f20e6b33cea1e7",
      "title": "Patient Dock Terminal"
    },
    "generator": "Sketchfab-16.72.0",
    "version": "2.0"
  },
  "bufferViews": [
    {
      "buffer": 0,
      "byteLength": 57528,
      "name": "floatBufferViews",
      "target": 34963
    },
    {
      "buffer": 0,
      "byteLength": 164928,
      "byteOffset": 57528,
      "byteStride": 8,
      "name": "floatBufferViews",
      "target": 34962
    },
    {
      "buffer": 0,
      "byteLength": 123696,
      "byteOffset": 222456,
      "byteStride": 12,
      "name": "floatBufferViews",
      "target": 34962
    },
    {
      "buffer": 0,
      "byteLength": 82464,
      "byteOffset": 346152,
      "byteStride": 16,
      "name": "floatBufferViews",
      "target": 34962
    }
  ],
  "buffers": [
    {
      "byteLength": 428616,
      "uri": "scene.bin"
    }
  ],
  "extensionsUsed": [
    "KHR_materials_specular"
  ],
  "images": [
    {
      "uri": "textures/Display_Unit_Material_baseColor.png"
    },
    {
      "uri": "textures/Display_Unit_Material_metallicRoughness.png"
    },
    {
      "uri": "textures/Display_Unit_Material_normal.png"
    },
    {
      "uri": "textures/Display_Unit_Material_specularf0.png"
    }
  ],
  "materials": [
    {
      "doubleSided": true,
      "extensions": {
        "KHR_materials_specular": {
          "specularColorFactor": [
            1.0,
            1.0,
            1.0
          ],
          "specularFactor": 1.0,
          "specularTexture": {
            "index": 3
          }
        }
      },
      "name": "Display_Unit_Material",
      "normalTexture": {
        "index": 2
      },
      "pbrMetallicRoughness": {
        "baseColorTexture": {
          "index": 0
        },
        "metallicRoughnessTexture": {
          "index": 1
        }
      }
    }
  ],
  "meshes": [
    {
      "name": "Object_0",
      "primitives": [
        {
          "attributes": {
            "NORMAL": 1,
            "POSITION": 0,
            "TANGENT": 2,
            "TEXCOORD_0": 3,
            "TEXCOORD_1": 4,
            "TEXCOORD_2": 5,
            "TEXCOORD_3": 6
          },
          "indices": 7,
          "material": 0,
          "mode": 4
        }
      ]
    }
  ],
  "nodes": [
    {
      "children": [
        1
      ],
      "matrix": [
        1.0,
        0.0,
        0.0,
        0.0,
        0.0,
        2.220446049250313e-16,
        -1.0,
        0.0,
        0.0,
        1.0,
        2.220446049250313e-16,
        0.0,
        0.0,
        0.0,
        0.0,
        1.0
      ],
      "name": "Sketchfab_model"
    },
    {
      "children": [
        2
      ],
      "name": "root"
    },
    {
      "children": [
        3
      ],
      "matrix": [
        1.0,
        0.0,
        0.0,
        0.0,
        0.0,
        2.220446049250313e-16,
        1.0,
        0.0,
        0.0,
        -1.0,
        2.220446049250313e-16,
        0.0,
        0.0,
        0.0,
        0.0,
        1.0
      ],
      "name": "GLTF_SceneRootNode"
    },
    {
      "children": [
        4
      ],
      "matrix": [
        1.0,
        0.0,
        0.0,
        0.0,
        0.0,
        0.707106806255644,
        0.70710675611745,
        0.0,
        0.0,
        -0.70710675611745,
        0.707106806255644,
        0.0,
        0.0,
        -0.026247097179293633,
        -0.010871903039515018,
        1.0
      ],
      "name": "Display Unit.001_0"
    },
    {
      "mesh": 0,
      "name": "Object_4"
    }
  ],
  "samplers": [
    {
      "magFilter": 9729,
      "minFilter": 9987,
      "wrapS": 10497,
      "wrapT": 10497
    }
  ],
  "scene": 0,
  "scenes": [
    {
      "name": "Sketchfab_Scene",
      "nodes": [
        0
      ]
    }
  ],
  "textures": [
    {
      "sampler": 0,
      "source": 0
    },
    {
      "sampler": 0,
      "source": 1
    },
    {
      "sampler": 0,
      "source": 2
    },
    {
      "sampler": 0,
      "source": 3
    }
  ]
}
