{
  "accessors": [
    {
      "bufferView": 2,
      "componentType": 5126,
      "count": 842,
      "max": [
        1181.924560546875,
        122.17413330078125,
        -253.0248565673828
      ],
      "min": [
        1145.883056640625,
        -1.2834053039550781,
        -453.02484130859375
      ],
      "type": "VEC3"
    },
    {
      "bufferView": 2,
      "byteOffset": 10104,
      "componentType": 5126,
      "count": 842,
      "max": [
        1.0,
        1.0,
        1.0
      ],
      "min": [
        -1.0,
        -1.0,
        -1.0
      ],
      "type": "VEC3"
    },
    {
      "bufferView": 3,
      "componentType": 5126,
      "count": 842,
      "max": [
        1.0,
        1.0,
        1.0,
        1.0
      ],
      "min": [
        -0.9998700022697449,
        -1.0,
        -1.0,
        -1.0
      ],
      "type": "VEC4"
    },
    {
      "bufferView": 1,
      "componentType": 5126,
      "count": 842,
      "max": [
        0.9912109375,
        0.9809417724609375
      ],
      "min": [
        0.0149078369140625,
        0.01220703125
      ],
      "type": "VEC2"
    },
    {
      "bufferView": 1,
      "byteOffset": 6736,
      "componentType": 5126,
      "count": 842,
      "max": [
        0.92919921875,
        0.9919357299804688
      ],
      "min": [
        0.00806427001953125,
        0.0078125
      ],
      "type": "VEC2"
    },
    {
      "bufferView": 1,
      "byteOffset": 13472,
      "componentType": 5126,
      "count": 842,
      "max": [
        0.0,
        0.0
      ],
      "min": [
        0.0,
        0.0
      ],
      "type": "VEC2"
    },
    {
      "bufferView": 1,
      "byteOffset": 20208,
      "componentType": 5126,
      "count": 842,
      "max": [
        0.0,
        0.0
      ],
      "min": [
        0.0,
        0.0
      ],
      "type": "VEC2"
    },
    {
      "bufferView": 0,
      "componentType": 5125,
      "count": 1638,
      "type": "SCALAR"
    },
    {
      "bufferView": 2,
      "byteOffset": 20208,
      "componentType": 5126,
      "count": 7848,
      "max": [
        1186.125732421875,
        163.21221923828125,
        -258.179443359375
      ],
      "min": [
        1141.0595703125,
        104.4679183959961,
        -443.8790588378906
      ],
      "type": "VEC3"
    },
    {
      "bufferView": 2,
      "byteOffset": 114384,
      "componentType": 5126,
      "count": 7848,
      "max": [
        0.9860716462135315,
        0.9995837211608887,
        0.998049795627594
      ],
      "min": [
        -0.9999633431434631,
        -0.7213335633277893,
        -0.9604810476303101
      ],
      "type": "VEC3"
    },
    {
      "bufferView": 1,
      "byteOffset": 26944,
      "componentType": 5126,
      "count": 7848,
      "max": [
        0.98388671875,
        0.9943084716796875
      ],
      "min": [
        0.011566162109375,
        0.3955078125
      ],
      "type": "VEC2"
    },
    {
      "bufferView": 1,
      "byteOffset": 89728,
      "componentType": 5126,
      "count": 7848,
      "max": [
        0.98974609375,
        1.0100631713867188
      ],
      "min": [
        0.0078125,
        0.0
      ],
      "type": "VEC2"
    },
    {
      "bufferView": 1,
      "byteOffset": 152512,
      "componentType": 5126,
      "count": 7848,
      "max": [
        0.96630859375,
        0.7501220703125
      ],
      "min": [
        0.0333251953125,
        0.25
      ],
      "type": "VEC2"
    },
    {
      "bufferView": 1,
      "byteOffset": 215296,
      "componentType": 5126,
      "count": 7848,
      "max": [
        0.0,
        0.0
      ],
      "min": [
        0.0,
        0.0
      ],
      "type": "VEC2"
    },
    {
      "bufferView": 0,
      "byteOffset": 6552,
      "componentType": 5125,
      "count": 14031,
      "type": "SCALAR"
    },
    {
      "bufferView": 2,
      "byteOffset": 208560,
      "componentType": 5126,
      "count": 3800,
      "max": [
        1188.633056640625,
        181.22674560546875,
        -255.0195770263672
      ],
      "min": [
        1148.49951171875,
        85.60208129882813,
        -453.90570068359375
      ],
      "type": "VEC3"
    },
    {
      "bufferView": 2,
      "byteOffset": 254160,
      "componentType": 5126,
      "count": 3800,
      "max": [
        0.8433421850204468,
        0.9999474287033081,
        0.8755828738212585
      ],
      "min": [
        -0.8510622978210449,
        -0.10143911838531494,
        -0.895825982093811
      ],
      "type": "VEC3"
    },
    {
      "bufferView": 1,
      "byteOffset": 278080,
      "componentType": 5126,
      "count": 3800,
      "max": [
        0.767578125,
        0.9449462890625
      ],
      "min": [
        0.006931304931640625,
        0.07763671875
      ],
      "type": "VEC2"
    },
    {
      "bufferView": 1,
      "byteOffset": 308480,
      "componentType": 5126,
      "count": 3800,
      "max": [
        0.9775390625,
        0.9940261840820313
      ],
      "min": [
        0.00946807861328125,
        0.03076171875
      ],
      "type": "VEC2"
    },
    {
      "bufferView": 1,
      "byteOffset": 338880,
      "componentType": 5126,
      "count": 3800,
      "max": [
        0.92822265625,
        0.9000244140625
      ],
      "min": [
        0.0714111328125,
        0.1000976637005806
      ],
      "type": "VEC2"
    },
    {
      "bufferView": 1,
      "byteOffset": 369280,
      "componentType": 5126,
      "count": 3800,
      "max": [
        0.0,
        0.0
      ],
      "min": [
        0.0,
        0.0
      ],
      "type": "VEC2"
    },
    {
      "bufferView": 0,
      "byteOffset": 62676,
      "componentType": 5125,
      "count": 4920,
      "type": "SCALAR"
    },
    {
      "bufferView": 2,
      "byteOffset": 299760,
      "componentType": 5126,
      "count": 5356,
      "max": [
        1095.5697021484375,
        35.77869415283203,
        -178.05191040039063
      ],
      "min": [
        1052.0955810546875,
        2.942108154296875,
        -509.15838623046875
      ],
      "type": "VEC3"
    },
    {
      "bufferView": 2,
      "byteOffset": 364032,
      "componentType": 5126,
      "count": 5356,
      "max": [
        0.9527709484100342,
        0.9984845519065857,
        0.8870248794555664
      ],
      "min": [
        -0.8859778046607971,
        0.28530335426330566,
        -0.859144389629364
      ],
      "type": "VEC3"
    },
    {
      "bufferView": 1,
      "byteOffset": 399680,
      "componentType": 5126,
      "count": 5356,
      "max": [
        0.99267578125,
        0.40966796875
      ],
      "min": [
        0.39599609375,
        0.0048828125
      ],
      "type": "VEC2"
    },
    {
      "bufferView": 1,
      "byteOffset": 442528,
      "componentType": 5126,
      "count": 5356,
      "max": [
        0.98486328125,
        0.9921875
      ],
      "min": [
        0.0078125,
        0.04443359375
      ],
      "type": "VEC2"
    },
    {
      "bufferView": 1,
      "byteOffset": 485376,
      "componentType": 5126,
      "count": 5356,
      "max": [
        0.8330078125,
        0.7501220703125
      ],
      "min": [
        0.1666259765625,
        0.25
      ],
      "type": "VEC2"
    },
    {
      "bufferView": 1,
      "byteOffset": 528224,
      "componentType": 5126,
      "count": 5356,
      "max": [
        0.0,
        0.0
      ],
      "min": [
        0.0,
        0.0
      ],
      "type": "VEC2"
    },
    {
      "bufferView": 0,
      "byteOffset": 82356,
      "componentType": 5125,
      "count": 8580,
      "type": "SCALAR"
    },
    {
      "bufferView": 2,
      "byteOffset": 428304,
      "componentType": 5126,
      "count": 3597,
      "max": [
        1100.0267333984375,
        38.53460693359375,
        -165.86805725097656
      ],
      "min": [
        1053.939208984375,
        -2.354969024658203,
        -517.9344482421875
      ],
      "type": "VEC3"
    },
    {
      "bufferView": 2,
      "byteOffset": 471468,
      "componentType": 5126,
      "count": 3597,
      "max": [
        1.0,
        1.0,
        1.0
      ],
      "min": [
        -1.0,
        -1.0,
        -1.0
      ],
      "type": "VEC3"
    },
    {
      "bufferView": 3,
      "byteOffset": 13472,
      "componentType": 5126,
      "count": 3597,
      "max": [
        1.0,
        1.0,
        0.9999995827674866,
        1.0
      ],
      "min": [
        -1.0,
        -1.0,
        -0.9999995827674866,
        -1.0
      ],
      "type": "VEC4"
    },
    {
      "bufferView": 1,
      "byteOffset": 571072,
      "componentType": 5126,
      "count": 3597,
      "max": [
        0.98779296875,
        0.9879608154296875
      ],
      "min": [
        0.007167816162109375,
        0.0068359375
      ],
      "type": "VEC2"
    },
    {
      "bufferView": 1,
      "byteOffset": 599848,
      "componentType": 5126,
      "count": 3597,
      "max": [
        0.98583984375,
        0.9919357299804688
      ],
      "min": [
        0.00806427001953125,
        0.014648438431322575
      ],
      "type": "VEC2"
    },
    {
      "bufferView": 1,
      "byteOffset": 628624,
      "componentType": 5126,
      "count": 3597,
      "max": [
        0.0,
        0.0
      ],
      "min": [
        0.0,
        0.0
      ],
      "type": "VEC2"
    },
    {
      "bufferView": 1,
      "byteOffset": 657400,
      "componentType": 5126,
      "count": 3597,
      "max": [
        0.9873046875,
        0.9870452880859375
      ],
      "min": [
        0.00716400146484375,
        0.00634765625
      ],
      "type": "VEC2"
    },
    {
      "bufferView": 0,
      "byteOffset": 116676,
      "componentType": 5125,
      "count": 9198,
      "type": "SCALAR"
    },
    {
      "bufferView": 2,
      "byteOffset": 514632,
      "componentType": 5126,
      "count": 2552,
      "max": [
        1095.8919677734375,
        35.775299072265625,
        -200.5952606201172
      ],
      "min": [
        1058.0513916015625,
        2.7671661376953125,
        -470.22991943359375
      ],
      "type": "VEC3"
    },
    {
      "bufferView": 2,
      "byteOffset": 545256,
      "componentType": 5126,
      "count": 2552,
      "max": [
        0.8858694434165955,
        0.9977754354476929,
        0.8077251315116882
      ],
      "min": [
        -0.942181408405304,
        0.14156997203826904,
        -0.8279789090156555
      ],
      "type": "VEC3"
    },
    {
      "bufferView": 1,
      "byteOffset": 686176,
      "componentType": 5126,
      "count": 2552,
      "max": [
        0.99267578125,
        0.40966796875
      ],
      "min": [
        0.5908203125,
        0.01513671875
      ],
      "type": "VEC2"
    },
    {
      "bufferView": 1,
      "byteOffset": 706592,
      "componentType": 5126,
      "count": 2552,
      "max": [
        0.99072265625,
        0.9921875
      ],
      "min": [
        0.0078125,
        0.08984375
      ],
      "type": "VEC2"
    },
    {
      "bufferView": 1,
      "byteOffset": 727008,
      "componentType": 5126,
      "count": 2552,
      "max": [
        0.8330078125,
        0.7501220703125
      ],
      "min": [
        0.1666259765625,
        0.25
      ],
      "type": "VEC2"
    },
    {
      "bufferView": 1,
      "byteOffset": 747424,
      "componentType": 5126,
      "count": 2552,
      "max": [
        0.0,
        0.0
      ],
      "min": [
        0.0,
        0.0
      ],
      "type": "VEC2"
    },
    {
      "bufferView": 0,
      "byteOffset": 153468,
      "componentType": 5125,
      "count": 4080,
      "type": "SCALAR"
    },
    {
      "bufferView": 2,
      "byteOffset": 575880,
      "componentType": 5126,
      "count": 4794,
      "max": [
        1097.3651123046875,
        32.86785888671875,
        -208.19229125976563
      ],
      "min": [
        1050.6234130859375,
        5.807945251464844,
        -505.2745361328125
      ],
      "type": "VEC3"
    },
    {
      "bufferView": 2,
      "byteOffset": 633408,
      "componentType": 5126,
      "count": 4794,
      "max": [
        0.9995952844619751,
        0.9998260140419006,
        0.9797284603118896
      ],
      "min": [
        -0.9988968968391418,
        -0.19157031178474426,
        -0.9991421103477478
      ],
      "type": "VEC3"
    },
    {
      "bufferView": 1,
      "byteOffset": 767840,
      "componentType": 5126,
      "count": 4794,
      "max": [
        0.99267578125,
        0.40966796875
      ],
      "min": [
        0.39599609375,
        0.0048828125
      ],
      "type": "VEC2"
    },
    {
      "bufferView": 1,
      "byteOffset": 806192,
      "componentType": 5126,
      "count": 4794,
      "max": [
        0.986328125,
        0.9921875
      ],
      "min": [
        0.0078125,
        0.02294921875
      ],
      "type": "VEC2"
    },
    {
      "bufferView": 1,
      "byteOffset": 844544,
      "componentType": 5126,
      "count": 4794,
      "max": [
        0.875,
        0.7501220703125
      ],
      "min": [
        0.125,
        0.25
      ],
      "type": "VEC2"
    },
    {
      "bufferView": 1,
      "byteOffset": 882896,
      "componentType": 5126,
      "count": 4794,
      "max": [
        0.0,
        0.0
      ],
      "min": [
        0.0,
        0.0
      ],
      "type": "VEC2"
    },
    {
      "bufferView": 0,
      "byteOffset": 169788,
      "componentType": 5125,
      "count": 7656,
      "type": "SCALAR"
    }
  ],
  "asset": {
    "extras": {
      "author": "thiezubu (https://sketchfab.com/thiezubu)",
      "license": "CC-BY-4.0 (http://creativecommons.org/licenses/by/4.0/)",
      "source": "https://sketchfab.com/3d-models/sci-fi-plant-rack-pot-free-f93eb8020d1942b7b3fe858d327b325c",
      "title": "Sci-fi plant rack + pot free"
    },
    "generator": "Sketchfab-12.67.0",
    "version": "2.0"
  },
  "bufferViews": [
    {
      "buffer": 0,
      "byteLength": 200412,
      "name": "floatBufferViews",
      "target": 34963
    },
    {
      "buffer": 0,
      "byteLength": 921248,
      "byteOffset": 200412,
      "byteStride": 8,
      "name": "floatBufferViews",
      "target": 34962
    },
    {
      "buffer": 0,
      "byteLength": 690936,
      "byteOffset": 1121660,
      "byteStride": 12,
      "name": "floatBufferViews",
      "target": 34962
    },
    {
      "buffer": 0,
      "byteLength": 71024,
      "byteOffset": 1812596,
      "byteStride": 16,
      "name": "floatBufferViews",
      "target": 34962
    }
  ],
  "buffers": [
    {
      "byteLength": 1883620,
      "uri": "scene.bin"
    }
  ],
  "images": [
    {
      "uri": "textures/material_baseColor.png"
    },
    {
      "uri": "textures/material_metallicRoughness.png"
    },
    {
      "uri": "textures/material_emissive.png"
    },
    {
      "uri": "textures/material_normal.png"
    },
    {
      "uri": "textures/rack_baseColor.png"
    },
    {
      "uri": "textures/rack_metallicRoughness.png"
    },
    {
      "uri": "textures/rack_normal.png"
    }
  ],
  "materials": [
    {
      "doubleSided": true,
      "emissiveFactor": [
        1.0,
        1.0,
        1.0
      ],
      "emissiveTexture": {
        "index": 2
      },
      "name": "material",
      "normalTexture": {
        "index": 3
      },
      "occlusionTexture": {
        "index": 1
      },
      "pbrMetallicRoughness": {
        "baseColorTexture": {
          "index": 0
        },
        "metallicRoughnessTexture": {
          "index": 1
        }
      }
    },
    {
      "doubleSided": true,
      "name": "ground_13_06_Mat",
      "pbrMetallicRoughness": {
        "baseColorFactor": [
          0.06280883912630458,
          0.12939368513215257,
          0.0,
          1.0
        ],
        "metallicFactor": 0.0,
        "roughnessFactor": 0.6
      }
    },
    {
      "doubleSided": true,
      "name": "ground_08_02_Mat",
      "pbrMetallicRoughness": {
        "baseColorFactor": [
          0.08739219761490993,
          0.26651984652910465,
          0.06438470950814858,
          1.0
        ],
        "metallicFactor": 0.0,
        "roughnessFactor": 0.6
      }
    },
    {
      "doubleSided": true,
      "name": "ground_06_04_Mat",
      "pbrMetallicRoughness": {
        "baseColorFactor": [
          0.05408988547993842,
          0.13553846013534465,
          0.005296039831214394,
          1.0
        ],
        "metallicFactor": 0.0,
        "roughnessFactor": 0.6
      }
    },
    {
      "doubleSided": true,
      "name": "rack",
      "normalTexture": {
        "index": 6
      },
      "occlusionTexture": {
        "index": 5
      },
      "pbrMetallicRoughness": {
        "baseColorTexture": {
          "index": 4
        },
        "metallicFactor": 0.0,
        "metallicRoughnessTexture": {
          "index": 5
        }
      }
    },
    {
      "doubleSided": true,
      "name": "ground_06_02_Mat",
      "pbrMetallicRoughness": {
        "baseColorFactor": [
          0.06176608345053588,
          0.08756462137077992,
          0.008312906400609435,
          1.0
        ],
        "metallicFactor": 0.0,
        "roughnessFactor": 0.6
      }
    },
    {
      "doubleSided": true,
      "name": "ground_06_03_Mat",
      "pbrMetallicRoughness": {
        "baseColorFactor": [
          0.17571025922818287,
          0.24573646857462492,
          0.0,
          1.0
        ],
        "metallicFactor": 0.0,
        "roughnessFactor": 0.6
      }
    }
  ],
  "meshes": [
    {
      "name": "plantpot_base6_pot_0",
      "primitives": [
        {
          "attributes": {
            "NORMAL": 1,
            "POSITION": 0,
            "TANGENT": 2,
            "TEXCOORD_0": 3,
            "TEXCOORD_1": 4,
            "TEXCOORD_2": 5,
            "TEXCOORD_3": 6
          },
          "indices": 7,
          "material": 0,
          "mode": 4
        }
      ]
    },
    {
      "name": "plantpot_base6_ground_13_06_Mat_0",
      "primitives": [
        {
          "attributes": {
            "NORMAL": 9,
            "POSITION": 8,
            "TEXCOORD_0": 10,
            "TEXCOORD_1": 11,
            "TEXCOORD_2": 12,
            "TEXCOORD_3": 13
          },
          "indices": 14,
          "material": 1,
          "mode": 4
        }
      ]
    },
    {
      "name": "plantpot_base6_ground_08_02_Mat_0",
      "primitives": [
        {
          "attributes": {
            "NORMAL": 16,
            "POSITION": 15,
            "TEXCOORD_0": 17,
            "TEXCOORD_1": 18,
            "TEXCOORD_2": 19,
            "TEXCOORD_3": 20
          },
          "indices": 21,
          "material": 2,
          "mode": 4
        }
      ]
    },
    {
      "name": "plantpot_base6_ground_06_04_Mat_0",
      "primitives": [
        {
          "attributes": {
            "NORMAL": 23,
            "POSITION": 22,
            "TEXCOORD_0": 24,
            "TEXCOORD_1": 25,
            "TEXCOORD_2": 26,
            "TEXCOORD_3": 27
          },
          "indices": 28,
          "material": 3,
          "mode": 4
        }
      ]
    },
    {
      "name": "plantpot_base6_rack_0",
      "primitives": [
        {
          "attributes": {
            "NORMAL": 30,
            "POSITION": 29,
            "TANGENT": 31,
            "TEXCOORD_0": 32,
            "TEXCOORD_1": 33,
            "TEXCOORD_2": 34,
            "TEXCOORD_3": 35
          },
          "indices": 36,
          "material": 4,
          "mode": 4
        }
      ]
    },
    {
      "name": "plantpot_base6_ground_06_02_Mat_0",
      "primitives": [
        {
          "attributes": {
            "NORMAL": 38,
            "POSITION": 37,
            "TEXCOORD_0": 39,
            "TEXCOORD_1": 40,
            "TEXCOORD_2": 41,
            "TEXCOORD_3": 42
          },
          "indices": 43,
          "material": 5,
          "mode": 4
        }
      ]
    },
    {
      "name": "plantpot_base6_ground_06_03_Mat_0",
      "primitives": [
        {
          "attributes": {
            "NORMAL": 45,
            "POSITION": 44,
            "TEXCOORD_0": 46,
            "TEXCOORD_1": 47,
            "TEXCOORD_2": 48,
            "TEXCOORD_3": 49
          },
          "indices": 50,
          "material": 6,
          "mode": 4
        }
      ]
    }
  ],
  "nodes": [
    {
      "children": [
        1
      ],
      "matrix": [
        1.0,
        0.0,
        0.0,
        0.0,
        0.0,
        5.053215392444312e-16,
        -1.0,
        0.0,
        0.0,
        1.0,
        5.053215392444312e-16,
        0.0,
        0.0,
        -7.771561172376095e-16,
        -4.440892098500628e-16,
        1.0
      ],
      "name": "Sketchfab_model"
    },
    {
      "children": [
        2
      ],
      "matrix": [
        0.009999999776482582,
        0.0,
        0.0,
        0.0,
        0.0,
        0.0,
        0.009999999776482582,
        0.0,
        0.0,
        -0.009999999776482582,
        0.0,
        0.0,
        0.0,
        0.0,
        0.0,
        1.0
      ],
      "name": "4ac1c85aad37446080942f051e91c3ef.fbx"
    },
    {
      "children": [
        3
      ],
      "name": "RootNode"
    },
    {
      "children": [
        4,
        5,
        6,
        7,
        8,
        9,
        10
      ],
      "matrix": [
        1.0,
        0.0,
        0.0,
        0.0,
        0.0,
        1.0,
        0.0,
        0.0,
        0.0,
        0.0,
        1.0,
        0.0,
        -957.7201538085938,
        0.0,
        64.17869567871094,
        1.0
      ],
      "name": "plantpot_base6"
    },
    {
      "mesh": 0,
      "name": "plantpot_base6_pot_0"
    },
    {
      "mesh": 1,
      "name": "plantpot_base6_ground_13_06_Mat_0"
    },
    {
      "mesh": 2,
      "name": "plantpot_base6_ground_08_02_Mat_0"
    },
    {
      "mesh": 3,
      "name": "plantpot_base6_ground_06_04_Mat_0"
    },
    {
      "mesh": 4,
      "name": "plantpot_base6_rack_0"
    },
    {
      "mesh": 5,
      "name": "plantpot_base6_ground_06_02_Mat_0"
    },
    {
      "mesh": 6,
      "name": "plantpot_base6_ground_06_03_Mat_0"
    }
  ],
  "samplers": [
    {
      "magFilter": 9729,
      "minFilter": 9987,
      "wrapS": 10497,
      "wrapT": 10497
    }
  ],
  "scene": 0,
  "scenes": [
    {
      "name": "Sketchfab_Scene",
      "nodes": [
        0
      ]
    }
  ],
  "textures": [
    {
      "sampler": 0,
      "source": 0
    },
    {
      "sampler": 0,
      "source": 1
    },
    {
      "sampler": 0,
      "source": 2
    },
    {
      "sampler": 0,
      "source": 3
    },
    {
      "sampler": 0,
      "source": 4
    },
    {
      "sampler": 0,
      "source": 5
    },
    {
      "sampler": 0,
      "source": 6
    }
  ]
}
