{
  "accessors": [
    {
      "bufferView": 2,
      "componentType": 5126,
      "count": 184,
      "max": [
        44.74936294555664,
        115.7253646850586,
        60.184295654296875
      ],
      "min": [
        -44.749366760253906,
        -115.72537231445313,
        -61.61131286621094
      ],
      "type": "VEC3"
    },
    {
      "bufferView": 2,
      "byteOffset": 2208,
      "componentType": 5126,
      "count": 184,
      "max": [
        1.0,
        1.0,
        1.0
      ],
      "min": [
        -1.0,
        -1.0,
        -0.8432056307792664
      ],
      "type": "VEC3"
    },
    {
      "bufferView": 3,
      "componentType": 5126,
      "count": 184,
      "max": [
        1.0,
        1.0,
        1.0,
        1.0
      ],
      "min": [
        -1.0,
        -0.7344498038291931,
        -0.7071045637130737,
        -1.0
      ],
      "type": "VEC4"
    },
    {
      "bufferView": 1,
      "componentType": 5126,
      "count": 184,
      "max": [
        0.9235154986381531,
        0.9329184889793396
      ],
      "min": [
        0.0005322694778442383,
        0.0005322694778442383
      ],
      "type": "VEC2"
    },
    {
      "bufferView": 1,
      "byteOffset": 1472,
      "componentType": 5126,
      "count": 184,
      "max": [
        0.9235154986381531,
        0.9329184889793396
      ],
      "min": [
        0.0005322694778442383,
        0.0005322694778442383
      ],
      "type": "VEC2"
    },
    {
      "bufferView": 1,
      "byteOffset": 2944,
      "componentType": 5126,
      "count": 184,
      "max": [
        0.9235154986381531,
        0.9329184889793396
      ],
      "min": [
        0.0005322694778442383,
        0.0005322694778442383
      ],
      "type": "VEC2"
    },
    {
      "bufferView": 0,
      "componentType": 5125,
      "count": 324,
      "type": "SCALAR"
    },
    {
      "bufferView": 2,
      "byteOffset": 4416,
      "componentType": 5126,
      "count": 1301,
      "max": [
        41.22373580932617,
        34.48044204711914,
        9.797426223754883
      ],
      "min": [
        -42.68879699707031,
        -37.65166473388672,
        -113.58112335205078
      ],
      "type": "VEC3"
    },
    {
      "bufferView": 2,
      "byteOffset": 20028,
      "componentType": 5126,
      "count": 1301,
      "max": [
        1.0,
        1.0,
        1.0
      ],
      "min": [
        -1.0,
        -1.0,
        -1.0
      ],
      "type": "VEC3"
    },
    {
      "bufferView": 3,
      "byteOffset": 2944,
      "componentType": 5126,
      "count": 1301,
      "max": [
        0.9999923706054688,
        1.0,
        1.0,
        1.0
      ],
      "min": [
        -1.0,
        -0.9999999403953552,
        -0.9999997019767761,
        -1.0
      ],
      "type": "VEC4"
    },
    {
      "bufferView": 1,
      "byteOffset": 4416,
      "componentType": 5126,
      "count": 1301,
      "max": [
        0.9994676113128662,
        0.9982077479362488
      ],
      "min": [
        0.000532299280166626,
        0.024186670780181885
      ],
      "type": "VEC2"
    },
    {
      "bufferView": 1,
      "byteOffset": 14824,
      "componentType": 5126,
      "count": 1301,
      "max": [
        0.9994676113128662,
        0.9982077479362488
      ],
      "min": [
        0.000532299280166626,
        0.024186670780181885
      ],
      "type": "VEC2"
    },
    {
      "bufferView": 1,
      "byteOffset": 25232,
      "componentType": 5126,
      "count": 1301,
      "max": [
        0.9994676113128662,
        0.9982077479362488
      ],
      "min": [
        0.000532299280166626,
        0.024186670780181885
      ],
      "type": "VEC2"
    },
    {
      "bufferView": 0,
      "byteOffset": 1296,
      "componentType": 5125,
      "count": 3141,
      "type": "SCALAR"
    },
    {
      "bufferView": 2,
      "byteOffset": 35640,
      "componentType": 5126,
      "count": 240,
      "max": [
        41.22373580932617,
        34.48044204711914,
        9.797426223754883
      ],
      "min": [
        -42.68879699707031,
        -37.65166473388672,
        -113.58112335205078
      ],
      "type": "VEC3"
    },
    {
      "bufferView": 2,
      "byteOffset": 38520,
      "componentType": 5126,
      "count": 240,
      "max": [
        1.0,
        1.0,
        1.0
      ],
      "min": [
        -1.0,
        -1.0,
        -1.0
      ],
      "type": "VEC3"
    },
    {
      "bufferView": 3,
      "byteOffset": 23760,
      "componentType": 5126,
      "count": 240,
      "max": [
        0.9999923706054688,
        1.0,
        1.0,
        1.0
      ],
      "min": [
        -1.0,
        -0.9999998807907104,
        -0.9262707829475403,
        -1.0
      ],
      "type": "VEC4"
    },
    {
      "bufferView": 1,
      "byteOffset": 35640,
      "componentType": 5126,
      "count": 240,
      "max": [
        0.9994676113128662,
        0.9196865558624268
      ],
      "min": [
        0.000532299280166626,
        0.19308555126190186
      ],
      "type": "VEC2"
    },
    {
      "bufferView": 1,
      "byteOffset": 37560,
      "componentType": 5126,
      "count": 240,
      "max": [
        0.9994676113128662,
        0.9196865558624268
      ],
      "min": [
        0.000532299280166626,
        0.19308555126190186
      ],
      "type": "VEC2"
    },
    {
      "bufferView": 1,
      "byteOffset": 39480,
      "componentType": 5126,
      "count": 240,
      "max": [
        0.9994676113128662,
        0.9196865558624268
      ],
      "min": [
        0.000532299280166626,
        0.19308555126190186
      ],
      "type": "VEC2"
    },
    {
      "bufferView": 0,
      "byteOffset": 13860,
      "componentType": 5125,
      "count": 468,
      "type": "SCALAR"
    },
    {
      "bufferView": 2,
      "byteOffset": 41400,
      "componentType": 5126,
      "count": 240,
      "max": [
        41.22373580932617,
        34.48044204711914,
        9.797426223754883
      ],
      "min": [
        -42.68879699707031,
        -37.65166473388672,
        -113.58112335205078
      ],
      "type": "VEC3"
    },
    {
      "bufferView": 2,
      "byteOffset": 44280,
      "componentType": 5126,
      "count": 240,
      "max": [
        1.0,
        1.0,
        1.0
      ],
      "min": [
        -1.0,
        -1.0,
        -1.0
      ],
      "type": "VEC3"
    },
    {
      "bufferView": 3,
      "byteOffset": 27600,
      "componentType": 5126,
      "count": 240,
      "max": [
        0.9999923706054688,
        1.0,
        1.0,
        1.0
      ],
      "min": [
        -1.0,
        -0.9999998807907104,
        -0.9262707829475403,
        -1.0
      ],
      "type": "VEC4"
    },
    {
      "bufferView": 1,
      "byteOffset": 41400,
      "componentType": 5126,
      "count": 240,
      "max": [
        0.9994676113128662,
        0.9196865558624268
      ],
      "min": [
        0.000532299280166626,
        0.19308555126190186
      ],
      "type": "VEC2"
    },
    {
      "bufferView": 1,
      "byteOffset": 43320,
      "componentType": 5126,
      "count": 240,
      "max": [
        0.9994676113128662,
        0.9196865558624268
      ],
      "min": [
        0.000532299280166626,
        0.19308555126190186
      ],
      "type": "VEC2"
    },
    {
      "bufferView": 1,
      "byteOffset": 45240,
      "componentType": 5126,
      "count": 240,
      "max": [
        0.9994676113128662,
        0.9196865558624268
      ],
      "min": [
        0.000532299280166626,
        0.19308555126190186
      ],
      "type": "VEC2"
    },
    {
      "bufferView": 0,
      "byteOffset": 15732,
      "componentType": 5125,
      "count": 468,
      "type": "SCALAR"
    },
    {
      "bufferView": 2,
      "byteOffset": 47160,
      "componentType": 5126,
      "count": 100,
      "max": [
        37.19536209106445,
        143.5109405517578,
        31.874752044677734
      ],
      "min": [
        -37.19536209106445,
        -143.51089477539063,
        -31.812820434570313
      ],
      "type": "VEC3"
    },
    {
      "bufferView": 2,
      "byteOffset": 48360,
      "componentType": 5126,
      "count": 100,
      "max": [
        1.0,
        1.0,
        1.0
      ],
      "min": [
        -1.0,
        -1.0,
        -1.0
      ],
      "type": "VEC3"
    },
    {
      "bufferView": 3,
      "byteOffset": 31440,
      "componentType": 5126,
      "count": 100,
      "max": [
        0.9238790273666382,
        1.0,
        1.0,
        1.0
      ],
      "min": [
        -1.0,
        -1.0,
        -1.0,
        -1.0
      ],
      "type": "VEC4"
    },
    {
      "bufferView": 1,
      "byteOffset": 47160,
      "componentType": 5126,
      "count": 100,
      "max": [
        0.9723734855651855,
        0.9999638795852661
      ],
      "min": [
        3.612041473388672e-05,
        3.612041473388672e-05
      ],
      "type": "VEC2"
    },
    {
      "bufferView": 1,
      "byteOffset": 47960,
      "componentType": 5126,
      "count": 100,
      "max": [
        0.9723734855651855,
        0.9999638795852661
      ],
      "min": [
        3.612041473388672e-05,
        3.612041473388672e-05
      ],
      "type": "VEC2"
    },
    {
      "bufferView": 0,
      "byteOffset": 17604,
      "componentType": 5125,
      "count": 216,
      "type": "SCALAR"
    },
    {
      "bufferView": 2,
      "byteOffset": 49560,
      "componentType": 5126,
      "count": 495,
      "max": [
        -0.07513675093650818,
        142.25411987304688,
        68.38165283203125
      ],
      "min": [
        -23.173255920410156,
        -142.254150390625,
        -0.3008573651313782
      ],
      "type": "VEC3"
    },
    {
      "bufferView": 2,
      "byteOffset": 55500,
      "componentType": 5126,
      "count": 495,
      "max": [
        0.9967487454414368,
        1.0,
        0.9976724982261658
      ],
      "min": [
        -0.9967483878135681,
        -1.0,
        -0.9976720809936523
      ],
      "type": "VEC3"
    },
    {
      "bufferView": 3,
      "byteOffset": 33040,
      "componentType": 5126,
      "count": 495,
      "max": [
        0.9976725578308105,
        1.0,
        0.9999889135360718,
        1.0
      ],
      "min": [
        -0.9976721405982971,
        -0.9784334301948547,
        -0.9956943988800049,
        -1.0
      ],
      "type": "VEC4"
    },
    {
      "bufferView": 1,
      "byteOffset": 48760,
      "componentType": 5126,
      "count": 495,
      "max": [
        0.9755553007125854,
        0.9196662306785583
      ],
      "min": [
        0.11184084415435791,
        3.612041473388672e-05
      ],
      "type": "VEC2"
    },
    {
      "bufferView": 1,
      "byteOffset": 52720,
      "componentType": 5126,
      "count": 495,
      "max": [
        0.9755553007125854,
        0.9196662306785583
      ],
      "min": [
        0.11184084415435791,
        3.612041473388672e-05
      ],
      "type": "VEC2"
    },
    {
      "bufferView": 0,
      "byteOffset": 18468,
      "componentType": 5125,
      "count": 1380,
      "type": "SCALAR"
    }
  ],
  "asset": {
    "extras": {
      "author": "Studio 23 (https://sketchfab.com/studio23)",
      "license": "CC-BY-4.0 (http://creativecommons.org/licenses/by/4.0/)",
      "source": "https://sketchfab.com/3d-models/low-poly-lockers-ba3e6ae72dc34da5883abb9429b89d04",
      "title": "Low Poly Lockers"
    },
    "generator": "Sketchfab-15.4.0",
    "version": "2.0"
  },
  "bufferViews": [
    {
      "buffer": 0,
      "byteLength": 23988,
      "name": "floatBufferViews",
      "target": 34963
    },
    {
      "buffer": 0,
      "byteLength": 56680,
      "byteOffset": 23988,
      "byteStride": 8,
      "name": "floatBufferViews",
      "target": 34962
    },
    {
      "buffer": 0,
      "byteLength": 61440,
      "byteOffset": 80668,
      "byteStride": 12,
      "name": "floatBufferViews",
      "target": 34962
    },
    {
      "buffer": 0,
      "byteLength": 40960,
      "byteOffset": 142108,
      "byteStride": 16,
      "name": "floatBufferViews",
      "target": 34962
    }
  ],
  "buffers": [
    {
      "byteLength": 183068,
      "uri": "scene.bin"
    }
  ],
  "images": [
    {
      "uri": "textures/Locker1_baseColor.png"
    },
    {
      "uri": "textures/Locker1_metallicRoughness.png"
    },
    {
      "uri": "textures/Locker1_normal.png"
    },
    {
      "uri": "textures/Locker2_baseColor.png"
    },
    {
      "uri": "textures/Locker2_metallicRoughness.png"
    },
    {
      "uri": "textures/Locker2_normal.png"
    }
  ],
  "materials": [
    {
      "doubleSided": true,
      "name": "Locker1",
      "normalTexture": {
        "index": 2
      },
      "pbrMetallicRoughness": {
        "baseColorTexture": {
          "index": 0
        },
        "metallicRoughnessTexture": {
          "index": 1
        }
      }
    },
    {
      "doubleSided": true,
      "name": "Locker2",
      "normalTexture": {
        "index": 5
      },
      "pbrMetallicRoughness": {
        "baseColorTexture": {
          "index": 3
        },
        "metallicRoughnessTexture": {
          "index": 4
        }
      }
    }
  ],
  "meshes": [
    {
      "name": "Locker1_Locker1_0",
      "primitives": [
        {
          "attributes": {
            "NORMAL": 1,
            "POSITION": 0,
            "TANGENT": 2,
            "TEXCOORD_0": 3,
            "TEXCOORD_1": 4,
            "TEXCOORD_2": 5
          },
          "indices": 6,
          "material": 0,
          "mode": 4
        }
      ]
    },
    {
      "name": "Drawer_Top_Locker1_Locker1_0",
      "primitives": [
        {
          "attributes": {
            "NORMAL": 8,
            "POSITION": 7,
            "TANGENT": 9,
            "TEXCOORD_0": 10,
            "TEXCOORD_1": 11,
            "TEXCOORD_2": 12
          },
          "indices": 13,
          "material": 0,
          "mode": 4
        }
      ]
    },
    {
      "name": "Drawer_Middle_Locker1_Locker1_0",
      "primitives": [
        {
          "attributes": {
            "NORMAL": 15,
            "POSITION": 14,
            "TANGENT": 16,
            "TEXCOORD_0": 17,
            "TEXCOORD_1": 18,
            "TEXCOORD_2": 19
          },
          "indices": 20,
          "material": 0,
          "mode": 4
        }
      ]
    },
    {
      "name": "Drawer_Bottom_Locker1_Locker1_0",
      "primitives": [
        {
          "attributes": {
            "NORMAL": 22,
            "POSITION": 21,
            "TANGENT": 23,
            "TEXCOORD_0": 24,
            "TEXCOORD_1": 25,
            "TEXCOORD_2": 26
          },
          "indices": 27,
          "material": 0,
          "mode": 4
        }
      ]
    },
    {
      "name": "Locker2_Locker2_0",
      "primitives": [
        {
          "attributes": {
            "NORMAL": 29,
            "POSITION": 28,
            "TANGENT": 30,
            "TEXCOORD_0": 31,
            "TEXCOORD_1": 32
          },
          "indices": 33,
          "material": 1,
          "mode": 4
        }
      ]
    },
    {
      "name": "Door_Locker2_Locker2_0",
      "primitives": [
        {
          "attributes": {
            "NORMAL": 35,
            "POSITION": 34,
            "TANGENT": 36,
            "TEXCOORD_0": 37,
            "TEXCOORD_1": 38
          },
          "indices": 39,
          "material": 1,
          "mode": 4
        }
      ]
    }
  ],
  "nodes": [
    {
      "children": [
        1
      ],
      "matrix": [
        1.0,
        0.0,
        0.0,
        0.0,
        0.0,
        2.220446049250313e-16,
        -1.0,
        0.0,
        0.0,
        1.0,
        2.220446049250313e-16,
        0.0,
        0.0,
        0.0,
        0.0,
        1.0
      ],
      "name": "Sketchfab_model"
    },
    {
      "children": [
        2
      ],
      "matrix": [
        0.009999999776482582,
        0.0,
        0.0,
        0.0,
        0.0,
        0.0,
        0.009999999776482582,
        0.0,
        0.0,
        -0.009999999776482582,
        0.0,
        0.0,
        0.0,
        0.0,
        0.0,
        1.0
      ],
      "name": "af1a4b9ec41a47739b6e15eabbb5dca9.fbx"
    },
    {
      "children": [
        3,
        11
      ],
      "name": "RootNode"
    },
    {
      "children": [
        4,
        5,
        7,
        9
      ],
      "matrix": [
        1.0,
        0.0,
        0.0,
        0.0,
        0.0,
        1.0,
        0.0,
        0.0,
        0.0,
        0.0,
        1.0,
        0.0,
        -89.73861694335938,
        -1.1705517768859863,
        -21.287446975708008,
        1.0
      ],
      "name": "Locker1"
    },
    {
      "mesh": 0,
      "name": "Locker1_Locker1_0"
    },
    {
      "children": [
        6
      ],
      "matrix": [
        1.0,
        0.0,
        0.0,
        0.0,
        0.0,
        1.0,
        0.0,
        0.0,
        0.0,
        0.0,
        1.0,
        0.0,
        0.7325286865234375,
        78.44075012207031,
        70.303955078125,
        1.0
      ],
      "name": "Drawer_Top_Locker1"
    },
    {
      "mesh": 1,
      "name": "Drawer_Top_Locker1_Locker1_0"
    },
    {
      "children": [
        8
      ],
      "matrix": [
        1.0,
        0.0,
        0.0,
        0.0,
        0.0,
        1.0,
        0.0,
        0.0,
        0.0,
        0.0,
        1.0,
        0.0,
        0.7325286865234375,
        1.6690489053726196,
        94.74073791503906,
        1.0
      ],
      "name": "Drawer_Middle_Locker1"
    },
    {
      "mesh": 2,
      "name": "Drawer_Middle_Locker1_Locker1_0"
    },
    {
      "children": [
        10
      ],
      "matrix": [
        1.0,
        0.0,
        0.0,
        0.0,
        0.0,
        1.0,
        0.0,
        0.0,
        0.0,
        0.0,
        1.0,
        0.0,
        0.7325286865234375,
        -75.29833221435547,
        125.60060119628906,
        1.0
      ],
      "name": "Drawer_Bottom_Locker1"
    },
    {
      "mesh": 3,
      "name": "Drawer_Bottom_Locker1_Locker1_0"
    },
    {
      "children": [
        12,
        13
      ],
      "matrix": [
        1.0,
        0.0,
        0.0,
        0.0,
        0.0,
        1.0,
        0.0,
        0.0,
        0.0,
        0.0,
        1.0,
        0.0,
        117.97882080078125,
        19.43007469177246,
        -2.9211864471435547,
        1.0
      ],
      "name": "Locker2"
    },
    {
      "mesh": 4,
      "name": "Locker2_Locker2_0"
    },
    {
      "children": [
        14
      ],
      "matrix": [
        1.0,
        0.0,
        0.0,
        0.0,
        0.0,
        1.0,
        0.0,
        0.0,
        0.0,
        0.0,
        1.0,
        0.0,
        35.991172790527344,
        -0.008317947387695313,
        31.91008949279785,
        1.0
      ],
      "name": "Door_Locker2"
    },
    {
      "mesh": 5,
      "name": "Door_Locker2_Locker2_0"
    }
  ],
  "samplers": [
    {
      "magFilter": 9729,
      "minFilter": 9987,
      "wrapS": 10497,
      "wrapT": 10497
    }
  ],
  "scene": 0,
  "scenes": [
    {
      "name": "Sketchfab_Scene",
      "nodes": [
        0
      ]
    }
  ],
  "textures": [
    {
      "sampler": 0,
      "source": 0
    },
    {
      "sampler": 0,
      "source": 1
    },
    {
      "sampler": 0,
      "source": 2
    },
    {
      "sampler": 0,
      "source": 3
    },
    {
      "sampler": 0,
      "source": 4
    },
    {
      "sampler": 0,
      "source": 5
    }
  ]
}
