{
  "accessors": [
    {
      "bufferView": 2,
      "componentType": 5126,
      "count": 1284,
      "max": [
        0.28511354327201843,
        0.28511351346969604,
        0.8102908134460449
      ],
      "min": [
        -0.2851134240627289,
        -0.28511348366737366,
        0.00017699599266052246
      ],
      "type": "VEC3"
    },
    {
      "bufferView": 2,
      "byteOffset": 15408,
      "componentType": 5126,
      "count": 1284,
      "max": [
        0.9999987483024597,
        0.9999987483024597,
        1.0
      ],
      "min": [
        -0.9999987483024597,
        -0.9999987483024597,
        -1.0
      ],
      "type": "VEC3"
    },
    {
      "bufferView": 3,
      "componentType": 5126,
      "count": 1284,
      "max": [
        0.9979705810546875,
        0.9966809749603271,
        1.0,
        1.0
      ],
      "min": [
        -0.9979705214500427,
        -0.9946903586387634,
        -1.0,
        1.0
      ],
      "type": "VEC4"
    },
    {
      "bufferView": 1,
      "componentType": 5126,
      "count": 1284,
      "max": [
        0.998046875,
        0.998046875
      ],
      "min": [
        0.001953125,
        0.001953125
      ],
      "type": "VEC2"
    },
    {
      "bufferView": 0,
      "componentType": 5125,
      "count": 3546,
      "type": "SCALAR"
    },
    {
      "bufferView": 2,
      "byteOffset": 30816,
      "componentType": 5126,
      "count": 240,
      "max": [
        0.057767268270254135,
        0.057767294347286224,
        0.7611889243125916
      ],
      "min": [
        -0.057767197489738464,
        -0.05776719003915787,
        0.744420051574707
      ],
      "type": "VEC3"
    },
    {
      "bufferView": 2,
      "byteOffset": 33696,
      "componentType": 5126,
      "count": 240,
      "max": [
        0.9574140310287476,
        0.9999987483024597,
        1.0
      ],
      "min": [
        -0.9574140310287476,
        -0.9999986886978149,
        -1.0
      ],
      "type": "VEC3"
    },
    {
      "bufferView": 3,
      "byteOffset": 20544,
      "componentType": 5126,
      "count": 240,
      "max": [
        0.4303383529186249,
        0.9999987483024597,
        1.0,
        1.0
      ],
      "min": [
        -0.541338324546814,
        -0.9999987483024597,
        -1.0,
        1.0
      ],
      "type": "VEC4"
    },
    {
      "bufferView": 1,
      "byteOffset": 10272,
      "componentType": 5126,
      "count": 240,
      "max": [
        0.47153642773628235,
        0.3346225321292877
      ],
      "min": [
        0.25574827194213867,
        0.25785425305366516
      ],
      "type": "VEC2"
    },
    {
      "bufferView": 0,
      "byteOffset": 14184,
      "componentType": 5125,
      "count": 678,
      "type": "SCALAR"
    },
    {
      "bufferView": 2,
      "byteOffset": 36576,
      "componentType": 5126,
      "count": 456,
      "max": [
        0.19181501865386963,
        0.19181501865386963,
        0.7917202711105347
      ],
      "min": [
        -0.19181492924690247,
        -0.19181495904922485,
        0.7611889243125916
      ],
      "type": "VEC3"
    },
    {
      "bufferView": 2,
      "byteOffset": 42048,
      "componentType": 5126,
      "count": 456,
      "max": [
        0.9999987483024597,
        0.9999986886978149,
        1.0
      ],
      "min": [
        -0.9999987483024597,
        -0.9999986886978149,
        -3.748314156837296e-07
      ],
      "type": "VEC3"
    },
    {
      "bufferView": 3,
      "byteOffset": 24384,
      "componentType": 5126,
      "count": 456,
      "max": [
        0.9999986886978149,
        0.9979705810546875,
        1.0,
        1.0
      ],
      "min": [
        -0.9979706406593323,
        -0.997970700263977,
        -0.9996381998062134,
        1.0
      ],
      "type": "VEC4"
    },
    {
      "bufferView": 1,
      "byteOffset": 12192,
      "componentType": 5126,
      "count": 456,
      "max": [
        0.5913106799125671,
        0.875018835067749
      ],
      "min": [
        0.2712905704975128,
        0.001953125
      ],
      "type": "VEC2"
    },
    {
      "bufferView": 0,
      "byteOffset": 16896,
      "componentType": 5125,
      "count": 1344,
      "type": "SCALAR"
    }
  ],
  "asset": {
    "extras": {
      "author": "Igor_K. (https://sketchfab.com/Igor_K.)",
      "license": "CC-BY-4.0 (http://creativecommons.org/licenses/by/4.0/)",
      "source": "https://sketchfab.com/3d-models/sci-fi-barrel-481f7499eaf64b8792bffc59a8b4e05a",
      "title": "Sci-fi barrel"
    },
    "generator": "Sketchfab-12.68.0",
    "version": "2.0"
  },
  "bufferViews": [
    {
      "buffer": 0,
      "byteLength": 22272,
      "name": "floatBufferViews",
      "target": 34963
    },
    {
      "buffer": 0,
      "byteLength": 15840,
      "byteOffset": 22272,
      "byteStride": 8,
      "name": "floatBufferViews",
      "target": 34962
    },
    {
      "buffer": 0,
      "byteLength": 47520,
      "byteOffset": 38112,
      "byteStride": 12,
      "name": "floatBufferViews",
      "target": 34962
    },
    {
      "buffer": 0,
      "byteLength": 31680,
      "byteOffset": 85632,
      "byteStride": 16,
      "name": "floatBufferViews",
      "target": 34962
    }
  ],
  "buffers": [
    {
      "byteLength": 117312,
      "uri": "scene.bin"
    }
  ],
  "images": [
    {
      "uri": "textures/Barrel_baseColor.png"
    },
    {
      "uri": "textures/Barrel_metallicRoughness.png"
    },
    {
      "uri": "textures/Barrel_emissive.png"
    },
    {
      "uri": "textures/Barrel_normal.png"
    }
  ],
  "materials": [
    {
      "doubleSided": true,
      "emissiveFactor": [
        0.7714842293286245,
        0.7714842293286245,
        0.7714842293286245
      ],
      "emissiveTexture": {
        "index": 2
      },
      "name": "Barrel",
      "normalTexture": {
        "index": 3
      },
      "occlusionTexture": {
        "index": 1
      },
      "pbrMetallicRoughness": {
        "baseColorTexture": {
          "index": 0
        },
        "metallicRoughnessTexture": {
          "index": 1
        }
      }
    }
  ],
  "meshes": [
    {
      "name": "Barrel_low_Barrel_0",
      "primitives": [
        {
          "attributes": {
            "NORMAL": 1,
            "POSITION": 0,
            "TANGENT": 2,
            "TEXCOORD_0": 3
          },
          "indices": 4,
          "material": 0,
          "mode": 4
        }
      ]
    },
    {
      "name": "Bung_low_Barrel_0",
      "primitives": [
        {
          "attributes": {
            "NORMAL": 6,
            "POSITION": 5,
            "TANGENT": 7,
            "TEXCOORD_0": 8
          },
          "indices": 9,
          "material": 0,
          "mode": 4
        }
      ]
    },
    {
      "name": "Cap_low_Barrel_0",
      "primitives": [
        {
          "attributes": {
            "NORMAL": 11,
            "POSITION": 10,
            "TANGENT": 12,
            "TEXCOORD_0": 13
          },
          "indices": 14,
          "material": 0,
          "mode": 4
        }
      ]
    }
  ],
  "nodes": [
    {
      "children": [
        1
      ],
      "matrix": [
        1.0,
        0.0,
        0.0,
        0.0,
        0.0,
        2.220446049250313e-16,
        -1.0,
        0.0,
        0.0,
        1.0,
        2.220446049250313e-16,
        0.0,
        0.0,
        0.0,
        0.0,
        1.0
      ],
      "name": "Sketchfab_model"
    },
    {
      "children": [
        2
      ],
      "matrix": [
        1.0,
        0.0,
        0.0,
        0.0,
        0.0,
        0.0,
        1.0,
        0.0,
        0.0,
        -1.0,
        0.0,
        0.0,
        0.0,
        0.0,
        0.0,
        1.0
      ],
      "name": "Barrel_LP001.fbx"
    },
    {
      "children": [
        3,
        5,
        7
      ],
      "name": "RootNode"
    },
    {
      "children": [
        4
      ],
      "matrix": [
        100.0,
        0.0,
        0.0,
        0.0,
        0.0,
        -1.629206793918314e-05,
        -99.99999999999868,
        0.0,
        0.0,
        99.99999999999868,
        -1.629206793918314e-05,
        0.0,
        0.0,
        0.0,
        0.0,
        1.0
      ],
      "name": "Barrel_low"
    },
    {
      "mesh": 0,
      "name": "Barrel_low_Barrel_0"
    },
    {
      "children": [
        6
      ],
      "matrix": [
        100.0,
        0.0,
        0.0,
        0.0,
        0.0,
        -1.629206793918314e-05,
        -99.99999999999868,
        0.0,
        0.0,
        99.99999999999868,
        -1.629206793918314e-05,
        0.0,
        0.0,
        0.0,
        0.0,
        1.0
      ],
      "name": "Bung_low"
    },
    {
      "mesh": 1,
      "name": "Bung_low_Barrel_0"
    },
    {
      "children": [
        8
      ],
      "matrix": [
        100.0,
        0.0,
        0.0,
        0.0,
        0.0,
        -1.629206793918314e-05,
        -99.99999999999868,
        0.0,
        0.0,
        99.99999999999868,
        -1.629206793918314e-05,
        0.0,
        0.0,
        0.0,
        0.0,
        1.0
      ],
      "name": "Cap_low"
    },
    {
      "mesh": 2,
      "name": "Cap_low_Barrel_0"
    }
  ],
  "samplers": [
    {
      "magFilter": 9729,
      "minFilter": 9987,
      "wrapS": 10497,
      "wrapT": 10497
    }
  ],
  "scene": 0,
  "scenes": [
    {
      "name": "Sketchfab_Scene",
      "nodes": [
        0
      ]
    }
  ],
  "textures": [
    {
      "sampler": 0,
      "source": 0
    },
    {
      "sampler": 0,
      "source": 1
    },
    {
      "sampler": 0,
      "source": 2
    },
    {
      "sampler": 0,
      "source": 3
    }
  ]
}
