{
  "accessors": [
    {
      "bufferView": 2,
      "componentType": 5126,
      "count": 679,
      "max": [
        0.30788466334342957,
        0.23186174035072327,
        0.725078821182251
      ],
      "min": [
        -0.30788466334342957,
        -0.42986828088760376,
        0.0
      ],
      "type": "VEC3"
    },
    {
      "bufferView": 2,
      "byteOffset": 8148,
      "componentType": 5126,
      "count": 679,
      "max": [
        1.0,
        1.0,
        1.0
      ],
      "min": [
        -1.0,
        -1.0,
        -1.0
      ],
      "type": "VEC3"
    },
    {
      "bufferView": 1,
      "componentType": 5126,
      "count": 679,
      "max": [
        0.7325000166893005,
        0.8575000166893005
      ],
      "min": [
        0.6424999833106995,
        0.7674999833106995
      ],
      "type": "VEC2"
    },
    {
      "bufferView": 0,
      "componentType": 5125,
      "count": 1200,
      "type": "SCALAR"
    },
    {
      "bufferView": 2,
      "byteOffset": 16296,
      "componentType": 5126,
      "count": 4091,
      "max": [
        0.9195958375930786,
        1.965000033378601,
        0.9499999284744263
      ],
      "min": [
        -0.9195958375930786,
        -1.6999999284744263,
        -0.10999999940395355
      ],
      "type": "VEC3"
    },
    {
      "bufferView": 2,
      "byteOffset": 65388,
      "componentType": 5126,
      "count": 4091,
      "max": [
        1.0,
        1.0,
        1.0
      ],
      "min": [
        -1.0,
        -1.0,
        -1.0
      ],
      "type": "VEC3"
    },
    {
      "bufferView": 1,
      "byteOffset": 5432,
      "componentType": 5126,
      "count": 4091,
      "max": [
        0.9664524793624878,
        0.9825000166893005
      ],
      "min": [
        0.4009745121002197,
        0.0325283408164978
      ],
      "type": "VEC2"
    },
    {
      "bufferView": 0,
      "byteOffset": 4800,
      "componentType": 5125,
      "count": 6804,
      "type": "SCALAR"
    },
    {
      "bufferView": 2,
      "byteOffset": 114480,
      "componentType": 5126,
      "count": 679,
      "max": [
        0.30788466334342957,
        0.23186174035072327,
        0.725078821182251
      ],
      "min": [
        -0.30788466334342957,
        -0.42986828088760376,
        0.0
      ],
      "type": "VEC3"
    },
    {
      "bufferView": 2,
      "byteOffset": 122628,
      "componentType": 5126,
      "count": 679,
      "max": [
        1.0,
        1.0,
        1.0
      ],
      "min": [
        -1.0,
        -1.0,
        -1.0
      ],
      "type": "VEC3"
    },
    {
      "bufferView": 1,
      "byteOffset": 38160,
      "componentType": 5126,
      "count": 679,
      "max": [
        0.7325000166893005,
        0.8575000166893005
      ],
      "min": [
        0.6424999833106995,
        0.7674999833106995
      ],
      "type": "VEC2"
    },
    {
      "bufferView": 0,
      "byteOffset": 32016,
      "componentType": 5125,
      "count": 1200,
      "type": "SCALAR"
    },
    {
      "bufferView": 2,
      "byteOffset": 130776,
      "componentType": 5126,
      "count": 679,
      "max": [
        0.30788466334342957,
        0.23186174035072327,
        0.725078821182251
      ],
      "min": [
        -0.30788466334342957,
        -0.42986828088760376,
        0.0
      ],
      "type": "VEC3"
    },
    {
      "bufferView": 2,
      "byteOffset": 138924,
      "componentType": 5126,
      "count": 679,
      "max": [
        1.0,
        1.0,
        1.0
      ],
      "min": [
        -1.0,
        -1.0,
        -1.0
      ],
      "type": "VEC3"
    },
    {
      "bufferView": 1,
      "byteOffset": 43592,
      "componentType": 5126,
      "count": 679,
      "max": [
        0.7325000166893005,
        0.8575000166893005
      ],
      "min": [
        0.6424999833106995,
        0.7674999833106995
      ],
      "type": "VEC2"
    },
    {
      "bufferView": 0,
      "byteOffset": 36816,
      "componentType": 5125,
      "count": 1200,
      "type": "SCALAR"
    },
    {
      "bufferView": 2,
      "byteOffset": 147072,
      "componentType": 5126,
      "count": 1088,
      "max": [
        0.7333330512046814,
        0.7333335280418396,
        0.9285863041877747
      ],
      "min": [
        -4.733333110809326,
        -0.7333330512046814,
        -1.0
      ],
      "type": "VEC3"
    },
    {
      "bufferView": 2,
      "byteOffset": 160128,
      "componentType": 5126,
      "count": 1088,
      "max": [
        0.9974845051765442,
        0.9974842667579651,
        1.0
      ],
      "min": [
        -0.9974845051765442,
        -0.9238795638084412,
        -1.0
      ],
      "type": "VEC3"
    },
    {
      "bufferView": 1,
      "byteOffset": 49024,
      "componentType": 5126,
      "count": 1088,
      "max": [
        0.9641370177268982,
        0.9815719723701477
      ],
      "min": [
        0.39421695470809937,
        0.02713066339492798
      ],
      "type": "VEC2"
    },
    {
      "bufferView": 0,
      "byteOffset": 41616,
      "componentType": 5125,
      "count": 1608,
      "type": "SCALAR"
    },
    {
      "bufferView": 2,
      "byteOffset": 173184,
      "componentType": 5126,
      "count": 544,
      "max": [
        0.7333330512046814,
        0.7333335280418396,
        0.9285863041877747
      ],
      "min": [
        -0.7333332300186157,
        -0.7333329319953918,
        -1.0
      ],
      "type": "VEC3"
    },
    {
      "bufferView": 2,
      "byteOffset": 179712,
      "componentType": 5126,
      "count": 544,
      "max": [
        0.9974842667579651,
        0.9974842071533203,
        1.0
      ],
      "min": [
        -0.9974843263626099,
        -0.9238795042037964,
        -1.0
      ],
      "type": "VEC3"
    },
    {
      "bufferView": 1,
      "byteOffset": 57728,
      "componentType": 5126,
      "count": 544,
      "max": [
        0.9641370177268982,
        0.9815719723701477
      ],
      "min": [
        0.39421695470809937,
        0.02713066339492798
      ],
      "type": "VEC2"
    },
    {
      "bufferView": 0,
      "byteOffset": 48048,
      "componentType": 5125,
      "count": 804,
      "type": "SCALAR"
    },
    {
      "bufferView": 2,
      "byteOffset": 186240,
      "componentType": 5126,
      "count": 2362,
      "max": [
        0.3525294363498688,
        0.739992618560791,
        0.9955688118934631
      ],
      "min": [
        -0.3525294363498688,
        0.3985184133052826,
        0.6726202964782715
      ],
      "type": "VEC3"
    },
    {
      "bufferView": 2,
      "byteOffset": 214584,
      "componentType": 5126,
      "count": 2362,
      "max": [
        0.9999318718910217,
        0.9974839091300964,
        1.0
      ],
      "min": [
        -0.9999318718910217,
        -0.9974846839904785,
        -1.0
      ],
      "type": "VEC3"
    },
    {
      "bufferView": 1,
      "byteOffset": 62080,
      "componentType": 5126,
      "count": 2362,
      "max": [
        0.9822220802307129,
        0.8575000166893005
      ],
      "min": [
        0.06791138648986816,
        0.0529254674911499
      ],
      "type": "VEC2"
    },
    {
      "bufferView": 0,
      "byteOffset": 51264,
      "componentType": 5125,
      "count": 3618,
      "type": "SCALAR"
    },
    {
      "bufferView": 2,
      "byteOffset": 242928,
      "componentType": 5126,
      "count": 304,
      "max": [
        0.159999817609787,
        1.7881393432617188e-07,
        0.15999987721443176
      ],
      "min": [
        -1.9733333587646484,
        -0.04999988526105881,
        -0.3733333647251129
      ],
      "type": "VEC3"
    },
    {
      "bufferView": 2,
      "byteOffset": 246576,
      "componentType": 5126,
      "count": 304,
      "max": [
        0.8299846649169922,
        0.5891039371490479,
        0.991783857345581
      ],
      "min": [
        -0.8299832344055176,
        -1.0,
        -0.7403296232223511
      ],
      "type": "VEC3"
    },
    {
      "bufferView": 1,
      "byteOffset": 80976,
      "componentType": 5126,
      "count": 304,
      "max": [
        0.9130555987358093,
        0.8534789681434631
      ],
      "min": [
        0.03284573554992676,
        0.03019660711288452
      ],
      "type": "VEC2"
    },
    {
      "bufferView": 0,
      "byteOffset": 65736,
      "componentType": 5125,
      "count": 444,
      "type": "SCALAR"
    }
  ],
  "asset": {
    "extras": {
      "author": "MRowa (https://sketchfab.com/MRowa)",
      "license": "CC-BY-SA-4.0 (http://creativecommons.org/licenses/by-sa/4.0/)",
      "source": "https://sketchfab.com/3d-models/ls-100-land-speeder-0cd148551fe24cc5b8eb69e49ab8f8b1",
      "title": "LS-100: Land Speeder"
    },
    "generator": "Sketchfab-12.66.0",
    "version": "2.0"
  },
  "bufferViews": [
    {
      "buffer": 0,
      "byteLength": 67512,
      "name": "floatBufferViews",
      "target": 34963
    },
    {
      "buffer": 0,
      "byteLength": 83408,
      "byteOffset": 67512,
      "byteStride": 8,
      "name": "floatBufferViews",
      "target": 34962
    },
    {
      "buffer": 0,
      "byteLength": 250224,
      "byteOffset": 150920,
      "byteStride": 12,
      "name": "floatBufferViews",
      "target": 34962
    }
  ],
  "buffers": [
    {
      "byteLength": 401144,
      "uri": "scene.bin"
    }
  ],
  "images": [
    {
      "uri": "textures/Placeable_baseColor.png"
    },
    {
      "uri": "textures/Placeable_metallicRoughness.png"
    },
    {
      "uri": "textures/Placeable_emissive.png"
    }
  ],
  "materials": [
    {
      "doubleSided": true,
      "emissiveFactor": [
        1.0,
        1.0,
        1.0
      ],
      "emissiveTexture": {
        "index": 2
      },
      "name": "Placeable",
      "pbrMetallicRoughness": {
        "baseColorTexture": {
          "index": 0
        },
        "metallicRoughnessTexture": {
          "index": 1
        },
        "roughnessFactor": 0.8040408205773457
      }
    }
  ],
  "meshes": [
    {
      "name": "LS-100_MainChair_Placeable_0",
      "primitives": [
        {
          "attributes": {
            "NORMAL": 1,
            "POSITION": 0,
            "TEXCOORD_0": 2
          },
          "indices": 3,
          "material": 0,
          "mode": 4
        }
      ]
    },
    {
      "name": "LS-100_Body_Placeable_0",
      "primitives": [
        {
          "attributes": {
            "NORMAL": 5,
            "POSITION": 4,
            "TEXCOORD_0": 6
          },
          "indices": 7,
          "material": 0,
          "mode": 4
        }
      ]
    },
    {
      "name": "LS-100_SecondChairTwo_Placeable_0",
      "primitives": [
        {
          "attributes": {
            "NORMAL": 9,
            "POSITION": 8,
            "TEXCOORD_0": 10
          },
          "indices": 11,
          "material": 0,
          "mode": 4
        }
      ]
    },
    {
      "name": "LS-100_SecondChairOne_Placeable_0",
      "primitives": [
        {
          "attributes": {
            "NORMAL": 13,
            "POSITION": 12,
            "TEXCOORD_0": 14
          },
          "indices": 15,
          "material": 0,
          "mode": 4
        }
      ]
    },
    {
      "name": "LS-100_SmallEngine_Placeable_0",
      "primitives": [
        {
          "attributes": {
            "NORMAL": 17,
            "POSITION": 16,
            "TEXCOORD_0": 18
          },
          "indices": 19,
          "material": 0,
          "mode": 4
        }
      ]
    },
    {
      "name": "LS-100_BigEngine_Placeable_0",
      "primitives": [
        {
          "attributes": {
            "NORMAL": 21,
            "POSITION": 20,
            "TEXCOORD_0": 22
          },
          "indices": 23,
          "material": 0,
          "mode": 4
        }
      ]
    },
    {
      "name": "LS-100_Control_Placeable_0",
      "primitives": [
        {
          "attributes": {
            "NORMAL": 25,
            "POSITION": 24,
            "TEXCOORD_0": 26
          },
          "indices": 27,
          "material": 0,
          "mode": 4
        }
      ]
    },
    {
      "name": "LS-100_Headlights_Placeable_0",
      "primitives": [
        {
          "attributes": {
            "NORMAL": 29,
            "POSITION": 28,
            "TEXCOORD_0": 30
          },
          "indices": 31,
          "material": 0,
          "mode": 4
        }
      ]
    }
  ],
  "nodes": [
    {
      "children": [
        1
      ],
      "matrix": [
        1.0,
        0.0,
        0.0,
        0.0,
        0.0,
        2.220446049250313e-16,
        -1.0,
        0.0,
        0.0,
        1.0,
        2.220446049250313e-16,
        0.0,
        0.0,
        0.0,
        0.0,
        1.0
      ],
      "name": "Sketchfab_model"
    },
    {
      "children": [
        2
      ],
      "matrix": [
        1.0,
        0.0,
        0.0,
        0.0,
        0.0,
        0.0,
        1.0,
        0.0,
        0.0,
        -1.0,
        0.0,
        0.0,
        0.0,
        0.0,
        0.0,
        1.0
      ],
      "name": "05e26894ba1f470aa47378a425d40b07.fbx"
    },
    {
      "children": [
        3
      ],
      "name": "RootNode"
    },
    {
      "children": [
        4,
        6,
        8,
        10,
        12,
        14,
        16,
        18
      ],
      "matrix": [
        100.0,
        0.0,
        0.0,
        0.0,
        0.0,
        -1.629206793918314e-05,
        -99.99999999999868,
        0.0,
        0.0,
        99.99999999999868,
        -1.629206793918314e-05,
        0.0,
        0.0,
        0.0,
        0.0,
        1.0
      ],
      "name": "LandSpeeder-100"
    },
    {
      "children": [
        5
      ],
      "matrix": [
        1.0,
        0.0,
        0.0,
        0.0,
        0.0,
        1.0,
        -2.646977960169688e-23,
        0.0,
        0.0,
        2.646977960169688e-23,
        1.0,
        0.0,
        0.0,
        0.0665343850851059,
        0.39651089906692505,
        1.0
      ],
      "name": "LS-100_MainChair"
    },
    {
      "mesh": 0,
      "name": "LS-100_MainChair_Placeable_0"
    },
    {
      "children": [
        7
      ],
      "matrix": [
        1.0,
        0.0,
        0.0,
        0.0,
        0.0,
        1.0,
        -2.646977960169688e-23,
        0.0,
        0.0,
        2.646977960169688e-23,
        1.0,
        0.0,
        0.0,
        -0.20000000298023224,
        0.20000000298023224,
        1.0
      ],
      "name": "LS-100_Body"
    },
    {
      "mesh": 1,
      "name": "LS-100_Body_Placeable_0"
    },
    {
      "children": [
        9
      ],
      "matrix": [
        1.0,
        0.0,
        0.0,
        0.0,
        0.0,
        1.0,
        -2.646977960169688e-23,
        0.0,
        0.0,
        2.646977960169688e-23,
        1.0,
        0.0,
        0.30000001192092896,
        0.966534435749054,
        0.39651089906692505,
        1.0
      ],
      "name": "LS-100_SecondChairTwo"
    },
    {
      "mesh": 2,
      "name": "LS-100_SecondChairTwo_Placeable_0"
    },
    {
      "children": [
        11
      ],
      "matrix": [
        1.0,
        0.0,
        0.0,
        0.0,
        0.0,
        1.0,
        -2.646977960169688e-23,
        0.0,
        0.0,
        2.646977960169688e-23,
        1.0,
        0.0,
        -0.30000001192092896,
        0.966534435749054,
        0.39651089906692505,
        1.0
      ],
      "name": "LS-100_SecondChairOne"
    },
    {
      "mesh": 3,
      "name": "LS-100_SecondChairOne_Placeable_0"
    },
    {
      "children": [
        13
      ],
      "matrix": [
        0.30000001192092896,
        6.661339206542156e-17,
        -6.661339206542156e-17,
        0.0,
        6.661340291811979e-17,
        -4.887620575971527e-08,
        0.300000011920925,
        0.0,
        6.661338121272158e-17,
        -0.300000011920925,
        -4.887620575971527e-08,
        0.0,
        0.6000000238418579,
        1.5,
        0.5999999642372131,
        1.0
      ],
      "name": "LS-100_SmallEngine"
    },
    {
      "mesh": 4,
      "name": "LS-100_SmallEngine_Placeable_0"
    },
    {
      "children": [
        15
      ],
      "matrix": [
        0.41574577160253406,
        1.9006283418212978e-09,
        -0.1722075569357444,
        0.0,
        0.17220755693574374,
        3.476132005082741e-08,
        0.41574577160253284,
        0.0,
        1.5058535167662363e-08,
        -0.4500000178813921,
        3.138793459968913e-08,
        0.0,
        4.508207924401294e-16,
        1.5,
        0.7999998927116394,
        1.0
      ],
      "name": "LS-100_BigEngine"
    },
    {
      "mesh": 5,
      "name": "LS-100_BigEngine_Placeable_0"
    },
    {
      "children": [
        17
      ],
      "matrix": [
        1.0,
        0.0,
        0.0,
        0.0,
        0.0,
        1.0,
        -2.646977960169688e-23,
        0.0,
        0.0,
        2.646977960169688e-23,
        1.0,
        0.0,
        -2.384185791015625e-07,
        -1.1000001430511475,
        0.20000000298023224,
        1.0
      ],
      "name": "LS-100_Control"
    },
    {
      "mesh": 6,
      "name": "LS-100_Control_Placeable_0"
    },
    {
      "children": [
        19
      ],
      "matrix": [
        0.75,
        0.0,
        0.0,
        0.0,
        0.0,
        0.75,
        0.0,
        0.0,
        0.0,
        0.0,
        0.75,
        0.0,
        0.6800000667572021,
        -1.8000000715255737,
        0.5800000429153442,
        1.0
      ],
      "name": "LS-100_Headlights"
    },
    {
      "mesh": 7,
      "name": "LS-100_Headlights_Placeable_0"
    }
  ],
  "samplers": [
    {
      "magFilter": 9728,
      "minFilter": 9728,
      "wrapS": 10497,
      "wrapT": 10497
    }
  ],
  "scene": 0,
  "scenes": [
    {
      "name": "Sketchfab_Scene",
      "nodes": [
        0
      ]
    }
  ],
  "textures": [
    {
      "sampler": 0,
      "source": 0
    },
    {
      "sampler": 0,
      "source": 1
    },
    {
      "sampler": 0,
      "source": 2
    }
  ]
}
