{
  "accessors": [
    {
      "bufferView": 2,
      "componentType": 5126,
      "count": 1122,
      "max": [
        4.0,
        7.0,
        7.25
      ],
      "min": [
        -4.0,
        -3.0526318550109863,
        -0.5
      ],
      "type": "VEC3"
    },
    {
      "bufferView": 2,
      "byteOffset": 13464,
      "componentType": 5126,
      "count": 1122,
      "max": [
        1.0,
        1.0,
        1.0
      ],
      "min": [
        -1.0,
        -1.0,
        -1.0
      ],
      "type": "VEC3"
    },
    {
      "bufferView": 1,
      "componentType": 5126,
      "count": 1122,
      "max": [
        0.9670302867889404,
        0.862500011920929
      ],
      "min": [
        0.39124995470046997,
        0.024810194969177246
      ],
      "type": "VEC2"
    },
    {
      "bufferView": 0,
      "componentType": 5125,
      "count": 1998,
      "type": "SCALAR"
    },
    {
      "bufferView": 2,
      "byteOffset": 26928,
      "componentType": 5126,
      "count": 449,
      "max": [
        5.0,
        6.0,
        5.0
      ],
      "min": [
        -5.0,
        0.0,
        0.0
      ],
      "type": "VEC3"
    },
    {
      "bufferView": 2,
      "byteOffset": 32316,
      "componentType": 5126,
      "count": 449,
      "max": [
        1.0,
        1.0,
        1.0
      ],
      "min": [
        -1.0,
        -1.0,
        -1.0
      ],
      "type": "VEC3"
    },
    {
      "bufferView": 1,
      "byteOffset": 8976,
      "componentType": 5126,
      "count": 449,
      "max": [
        0.9347500205039978,
        0.8623766899108887
      ],
      "min": [
        0.38749998807907104,
        0.06435441970825195
      ],
      "type": "VEC2"
    },
    {
      "bufferView": 0,
      "byteOffset": 7992,
      "componentType": 5125,
      "count": 822,
      "type": "SCALAR"
    },
    {
      "bufferView": 2,
      "byteOffset": 37704,
      "componentType": 5126,
      "count": 582,
      "max": [
        4.0,
        9.5,
        6.0
      ],
      "min": [
        -4.0,
        7.0,
        0.0
      ],
      "type": "VEC3"
    },
    {
      "bufferView": 2,
      "byteOffset": 44688,
      "componentType": 5126,
      "count": 582,
      "max": [
        1.0,
        1.0,
        1.0
      ],
      "min": [
        -1.0,
        -1.0,
        -1.0
      ],
      "type": "VEC3"
    },
    {
      "bufferView": 1,
      "byteOffset": 12568,
      "componentType": 5126,
      "count": 582,
      "max": [
        0.8569203615188599,
        0.875
      ],
      "min": [
        0.4137500524520874,
        0.762499988079071
      ],
      "type": "VEC2"
    },
    {
      "bufferView": 0,
      "byteOffset": 11280,
      "componentType": 5125,
      "count": 981,
      "type": "SCALAR"
    },
    {
      "bufferView": 2,
      "byteOffset": 51672,
      "componentType": 5126,
      "count": 46,
      "max": [
        0.5006564259529114,
        -0.25,
        1.5
      ],
      "min": [
        -0.5006564259529114,
        -0.25,
        0.4999999403953552
      ],
      "type": "VEC3"
    },
    {
      "bufferView": 2,
      "byteOffset": 52224,
      "componentType": 5126,
      "count": 46,
      "max": [
        0.0,
        -1.0,
        6.898686066847404e-09
      ],
      "min": [
        0.0,
        -1.0,
        -1.8597455664348672e-07
      ],
      "type": "VEC3"
    },
    {
      "bufferView": 1,
      "byteOffset": 17224,
      "componentType": 5126,
      "count": 46,
      "max": [
        0.8934921622276306,
        0.987500011920929
      ],
      "min": [
        0.38749998807907104,
        0.01732844114303589
      ],
      "type": "VEC2"
    },
    {
      "bufferView": 0,
      "byteOffset": 15204,
      "componentType": 5125,
      "count": 120,
      "type": "SCALAR"
    },
    {
      "bufferView": 2,
      "byteOffset": 52776,
      "componentType": 5126,
      "count": 1413,
      "max": [
        8.088578224182129,
        9.426671981811523,
        3.5
      ],
      "min": [
        0.0,
        4.173604488372803,
        -1.4901161193847656e-08
      ],
      "type": "VEC3"
    },
    {
      "bufferView": 2,
      "byteOffset": 69732,
      "componentType": 5126,
      "count": 1413,
      "max": [
        1.0,
        1.0,
        1.0
      ],
      "min": [
        -1.0,
        -1.0,
        -1.0
      ],
      "type": "VEC3"
    },
    {
      "bufferView": 1,
      "byteOffset": 17592,
      "componentType": 5126,
      "count": 1413,
      "max": [
        0.7950000762939453,
        0.8291667103767395
      ],
      "min": [
        0.41249990463256836,
        0.8035256266593933
      ],
      "type": "VEC2"
    },
    {
      "bufferView": 0,
      "byteOffset": 15684,
      "componentType": 5125,
      "count": 2649,
      "type": "SCALAR"
    },
    {
      "bufferView": 2,
      "byteOffset": 86688,
      "componentType": 5126,
      "count": 2656,
      "max": [
        7.25,
        7.863157749176025,
        14.146446228027344
      ],
      "min": [
        1.75,
        5.452528476715088,
        2.0
      ],
      "type": "VEC3"
    },
    {
      "bufferView": 2,
      "byteOffset": 118560,
      "componentType": 5126,
      "count": 2656,
      "max": [
        1.0,
        1.0,
        1.0
      ],
      "min": [
        -1.0,
        -1.0,
        -1.0
      ],
      "type": "VEC3"
    },
    {
      "bufferView": 1,
      "byteOffset": 28896,
      "componentType": 5126,
      "count": 2656,
      "max": [
        0.8625000715255737,
        0.8670001029968262
      ],
      "min": [
        0.01791718602180481,
        0.6474172472953796
      ],
      "type": "VEC2"
    },
    {
      "bufferView": 0,
      "byteOffset": 26280,
      "componentType": 5125,
      "count": 4350,
      "type": "SCALAR"
    },
    {
      "bufferView": 2,
      "byteOffset": 150432,
      "componentType": 5126,
      "count": 40,
      "max": [
        8.0,
        4.263157844543457,
        0.5
      ],
      "min": [
        1.0,
        -1.736842155456543,
        0.0
      ],
      "type": "VEC3"
    },
    {
      "bufferView": 2,
      "byteOffset": 150912,
      "componentType": 5126,
      "count": 40,
      "max": [
        1.0,
        1.0,
        1.0
      ],
      "min": [
        -1.0,
        -1.0,
        -1.0
      ],
      "type": "VEC3"
    },
    {
      "bufferView": 1,
      "byteOffset": 50144,
      "componentType": 5126,
      "count": 40,
      "max": [
        0.4200000762939453,
        0.8291666507720947
      ],
      "min": [
        0.42000001668930054,
        0.8163461685180664
      ],
      "type": "VEC2"
    },
    {
      "bufferView": 0,
      "byteOffset": 43680,
      "componentType": 5125,
      "count": 60,
      "type": "SCALAR"
    },
    {
      "bufferView": 2,
      "byteOffset": 151392,
      "componentType": 5126,
      "count": 213,
      "max": [
        9.0,
        10.263167381286621,
        0.5
      ],
      "min": [
        -9.0,
        -3.736842155456543,
        0.0
      ],
      "type": "VEC3"
    },
    {
      "bufferView": 2,
      "byteOffset": 153948,
      "componentType": 5126,
      "count": 213,
      "max": [
        1.0,
        1.0,
        1.0
      ],
      "min": [
        -1.0,
        -1.0,
        -1.0
      ],
      "type": "VEC3"
    },
    {
      "bufferView": 1,
      "byteOffset": 50464,
      "componentType": 5126,
      "count": 213,
      "max": [
        0.4750000238418579,
        0.862500011920929
      ],
      "min": [
        0.4000000059604645,
        0.762499988079071
      ],
      "type": "VEC2"
    },
    {
      "bufferView": 0,
      "byteOffset": 43920,
      "componentType": 5125,
      "count": 354,
      "type": "SCALAR"
    },
    {
      "bufferView": 2,
      "byteOffset": 156504,
      "componentType": 5126,
      "count": 2100,
      "max": [
        9.0,
        4.21795129776001,
        3.587040424346924
      ],
      "min": [
        1.0,
        -1.6916351318359375,
        -0.25
      ],
      "type": "VEC3"
    },
    {
      "bufferView": 2,
      "byteOffset": 181704,
      "componentType": 5126,
      "count": 2100,
      "max": [
        1.0,
        1.0,
        1.0
      ],
      "min": [
        -1.0,
        -1.0,
        -0.9659258723258972
      ],
      "type": "VEC3"
    },
    {
      "bufferView": 1,
      "byteOffset": 52168,
      "componentType": 5126,
      "count": 2100,
      "max": [
        0.986058235168457,
        0.8670001029968262
      ],
      "min": [
        0.43695148825645447,
        0.06699985265731812
      ],
      "type": "VEC2"
    },
    {
      "bufferView": 0,
      "byteOffset": 45336,
      "componentType": 5125,
      "count": 3312,
      "type": "SCALAR"
    },
    {
      "bufferView": 2,
      "byteOffset": 206904,
      "componentType": 5126,
      "count": 40,
      "max": [
        3.5,
        7.75,
        4.0
      ],
      "min": [
        3.5,
        7.25,
        3.0
      ],
      "type": "VEC3"
    },
    {
      "bufferView": 2,
      "byteOffset": 207384,
      "componentType": 5126,
      "count": 40,
      "max": [
        1.0,
        1.3996045709063765e-05,
        0.0
      ],
      "min": [
        1.0,
        -1.399671054969076e-05,
        0.0
      ],
      "type": "VEC3"
    },
    {
      "bufferView": 1,
      "byteOffset": 68968,
      "componentType": 5126,
      "count": 40,
      "max": [
        0.9192252159118652,
        0.8271511793136597
      ],
      "min": [
        0.4150186777114868,
        0.05766505002975464
      ],
      "type": "VEC2"
    },
    {
      "bufferView": 0,
      "byteOffset": 58584,
      "componentType": 5125,
      "count": 102,
      "type": "SCALAR"
    }
  ],
  "asset": {
    "extras": {
      "author": "MRowa (https://sketchfab.com/MRowa)",
      "license": "CC-BY-SA-4.0 (http://creativecommons.org/licenses/by-sa/4.0/)",
      "source": "https://sketchfab.com/3d-models/coal-power-station-f503dffe366648a58e565e6b3bee4583",
      "title": "Coal Power Station"
    },
    "generator": "Sketchfab-12.66.0",
    "version": "2.0"
  },
  "bufferViews": [
    {
      "buffer": 0,
      "byteLength": 58992,
      "name": "floatBufferViews",
      "target": 34963
    },
    {
      "buffer": 0,
      "byteLength": 69288,
      "byteOffset": 58992,
      "byteStride": 8,
      "name": "floatBufferViews",
      "target": 34962
    },
    {
      "buffer": 0,
      "byteLength": 207864,
      "byteOffset": 128280,
      "byteStride": 12,
      "name": "floatBufferViews",
      "target": 34962
    }
  ],
  "buffers": [
    {
      "byteLength": 336144,
      "uri": "scene.bin"
    }
  ],
  "images": [
    {
      "uri": "textures/Placeable_baseColor.png"
    },
    {
      "uri": "textures/Placeable_metallicRoughness.png"
    },
    {
      "uri": "textures/Placeable_emissive.png"
    }
  ],
  "materials": [
    {
      "doubleSided": true,
      "emissiveFactor": [
        1.0,
        1.0,
        1.0
      ],
      "emissiveTexture": {
        "index": 2
      },
      "name": "Placeable",
      "pbrMetallicRoughness": {
        "baseColorTexture": {
          "index": 0
        },
        "metallicRoughnessTexture": {
          "index": 1
        },
        "roughnessFactor": 0.75
      }
    }
  ],
  "meshes": [
    {
      "name": "CoalPowerStation_Body_Placeable_0",
      "primitives": [
        {
          "attributes": {
            "NORMAL": 1,
            "POSITION": 0,
            "TEXCOORD_0": 2
          },
          "indices": 3,
          "material": 0,
          "mode": 4
        }
      ]
    },
    {
      "name": "CoalPowerStation_BodySideParts_Placeable_0",
      "primitives": [
        {
          "attributes": {
            "NORMAL": 5,
            "POSITION": 4,
            "TEXCOORD_0": 6
          },
          "indices": 7,
          "material": 0,
          "mode": 4
        }
      ]
    },
    {
      "name": "CoalPowerStation_BodyPart_Placeable_0",
      "primitives": [
        {
          "attributes": {
            "NORMAL": 9,
            "POSITION": 8,
            "TEXCOORD_0": 10
          },
          "indices": 11,
          "material": 0,
          "mode": 4
        }
      ]
    },
    {
      "name": "CoalPowerStation_MainDoor_Placeable_0",
      "primitives": [
        {
          "attributes": {
            "NORMAL": 13,
            "POSITION": 12,
            "TEXCOORD_0": 14
          },
          "indices": 15,
          "material": 0,
          "mode": 4
        }
      ]
    },
    {
      "name": "CoalPowerStation_ChimneyBody_Placeable_0",
      "primitives": [
        {
          "attributes": {
            "NORMAL": 17,
            "POSITION": 16,
            "TEXCOORD_0": 18
          },
          "indices": 19,
          "material": 0,
          "mode": 4
        }
      ]
    },
    {
      "name": "CoalPowerStation_Chimneys_Placeable_0",
      "primitives": [
        {
          "attributes": {
            "NORMAL": 21,
            "POSITION": 20,
            "TEXCOORD_0": 22
          },
          "indices": 23,
          "material": 0,
          "mode": 4
        }
      ]
    },
    {
      "name": "CoalPowerStation_GeneratorFoundation_Placeable_0",
      "primitives": [
        {
          "attributes": {
            "NORMAL": 25,
            "POSITION": 24,
            "TEXCOORD_0": 26
          },
          "indices": 27,
          "material": 0,
          "mode": 4
        }
      ]
    },
    {
      "name": "CoalPowerStation_Foundation_Placeable_0",
      "primitives": [
        {
          "attributes": {
            "NORMAL": 29,
            "POSITION": 28,
            "TEXCOORD_0": 30
          },
          "indices": 31,
          "material": 0,
          "mode": 4
        }
      ]
    },
    {
      "name": "CoalPowerStation_Generator_Placeable_0",
      "primitives": [
        {
          "attributes": {
            "NORMAL": 33,
            "POSITION": 32,
            "TEXCOORD_0": 34
          },
          "indices": 35,
          "material": 0,
          "mode": 4
        }
      ]
    },
    {
      "name": "CoalPowerStation_SecondDoor_Placeable_0",
      "primitives": [
        {
          "attributes": {
            "NORMAL": 37,
            "POSITION": 36,
            "TEXCOORD_0": 38
          },
          "indices": 39,
          "material": 0,
          "mode": 4
        }
      ]
    }
  ],
  "nodes": [
    {
      "children": [
        1
      ],
      "matrix": [
        1.0,
        0.0,
        0.0,
        0.0,
        0.0,
        2.220446049250313e-16,
        -1.0,
        0.0,
        0.0,
        1.0,
        2.220446049250313e-16,
        0.0,
        0.0,
        0.0,
        0.0,
        1.0
      ],
      "name": "Sketchfab_model"
    },
    {
      "children": [
        2
      ],
      "matrix": [
        1.0,
        0.0,
        0.0,
        0.0,
        0.0,
        0.0,
        1.0,
        0.0,
        0.0,
        -1.0,
        0.0,
        0.0,
        0.0,
        0.0,
        0.0,
        1.0
      ],
      "name": "CoalPowerStation.fbx"
    },
    {
      "children": [
        3
      ],
      "name": "RootNode"
    },
    {
      "children": [
        4,
        6,
        8,
        10,
        12,
        14,
        16,
        18,
        20,
        22
      ],
      "matrix": [
        100.0,
        0.0,
        0.0,
        0.0,
        0.0,
        -1.629206793918314e-05,
        -99.99999999999868,
        0.0,
        0.0,
        99.99999999999868,
        -1.629206793918314e-05,
        0.0,
        0.0,
        0.0,
        0.0,
        1.0
      ],
      "name": "CoalPowerStation"
    },
    {
      "children": [
        5
      ],
      "matrix": [
        1.899999976158142,
        0.0,
        0.0,
        0.0,
        0.0,
        1.899999976158142,
        0.0,
        0.0,
        0.0,
        0.0,
        1.899999976158142,
        0.0,
        -7.599999904632568,
        -3.3000001907348633,
        0.949999988079071,
        1.0
      ],
      "name": "CoalPowerStation_Body"
    },
    {
      "mesh": 0,
      "name": "CoalPowerStation_Body_Placeable_0"
    },
    {
      "children": [
        7
      ],
      "matrix": [
        1.899999976158142,
        0.0,
        0.0,
        0.0,
        0.0,
        1.899999976158142,
        0.0,
        0.0,
        0.0,
        0.0,
        1.899999976158142,
        0.0,
        -7.599999904632568,
        -3.3000001907348633,
        0.949999988079071,
        1.0
      ],
      "name": "CoalPowerStation_BodySideParts"
    },
    {
      "mesh": 1,
      "name": "CoalPowerStation_BodySideParts_Placeable_0"
    },
    {
      "children": [
        9
      ],
      "matrix": [
        1.899999976158142,
        0.0,
        0.0,
        0.0,
        0.0,
        1.899999976158142,
        0.0,
        0.0,
        0.0,
        0.0,
        1.899999976158142,
        0.0,
        -7.599999904632568,
        -3.3000001907348633,
        0.949999988079071,
        1.0
      ],
      "name": "CoalPowerStation_BodyPart"
    },
    {
      "mesh": 2,
      "name": "CoalPowerStation_BodyPart_Placeable_0"
    },
    {
      "children": [
        11
      ],
      "matrix": [
        1.899999976158142,
        0.0,
        0.0,
        0.0,
        0.0,
        1.899999976158142,
        0.0,
        0.0,
        0.0,
        0.0,
        1.899999976158142,
        0.0,
        -7.599999904632568,
        -3.3000001907348633,
        0.949999988079071,
        1.0
      ],
      "name": "CoalPowerStation_MainDoor"
    },
    {
      "mesh": 3,
      "name": "CoalPowerStation_MainDoor_Placeable_0"
    },
    {
      "children": [
        13
      ],
      "matrix": [
        1.899999976158142,
        0.0,
        0.0,
        0.0,
        0.0,
        1.899999976158142,
        0.0,
        0.0,
        0.0,
        0.0,
        1.899999976158142,
        0.0,
        0.0,
        0.0,
        0.949999988079071,
        1.0
      ],
      "name": "CoalPowerStation_ChimneyBody"
    },
    {
      "mesh": 4,
      "name": "CoalPowerStation_ChimneyBody_Placeable_0"
    },
    {
      "children": [
        15
      ],
      "matrix": [
        1.899999976158142,
        0.0,
        0.0,
        0.0,
        0.0,
        1.899999976158142,
        0.0,
        0.0,
        0.0,
        0.0,
        1.899999976158142,
        0.0,
        0.0,
        0.0,
        0.949999988079071,
        1.0
      ],
      "name": "CoalPowerStation_Chimneys"
    },
    {
      "mesh": 5,
      "name": "CoalPowerStation_Chimneys_Placeable_0"
    },
    {
      "children": [
        17
      ],
      "matrix": [
        1.899999976158142,
        0.0,
        0.0,
        0.0,
        0.0,
        1.899999976158142,
        0.0,
        0.0,
        0.0,
        0.0,
        1.899999976158142,
        0.0,
        0.0,
        0.0,
        0.949999988079071,
        1.0
      ],
      "name": "CoalPowerStation_GeneratorFoundation"
    },
    {
      "mesh": 6,
      "name": "CoalPowerStation_GeneratorFoundation_Placeable_0"
    },
    {
      "children": [
        19
      ],
      "matrix": [
        1.899999976158142,
        0.0,
        0.0,
        0.0,
        0.0,
        1.899999976158142,
        0.0,
        0.0,
        0.0,
        0.0,
        1.899999976158142,
        0.0,
        0.0,
        0.0,
        0.0,
        1.0
      ],
      "name": "CoalPowerStation_Foundation"
    },
    {
      "mesh": 7,
      "name": "CoalPowerStation_Foundation_Placeable_0"
    },
    {
      "children": [
        21
      ],
      "matrix": [
        1.899999976158142,
        0.0,
        0.0,
        0.0,
        0.0,
        1.899999976158142,
        0.0,
        0.0,
        0.0,
        0.0,
        1.899999976158142,
        0.0,
        0.0,
        0.0,
        0.949999988079071,
        1.0
      ],
      "name": "CoalPowerStation_Generator"
    },
    {
      "mesh": 8,
      "name": "CoalPowerStation_Generator_Placeable_0"
    },
    {
      "children": [
        23
      ],
      "matrix": [
        1.899999976158142,
        0.0,
        0.0,
        0.0,
        0.0,
        1.899999976158142,
        0.0,
        0.0,
        0.0,
        0.0,
        1.899999976158142,
        0.0,
        -7.599999904632568,
        -3.3000001907348633,
        0.949999988079071,
        1.0
      ],
      "name": "CoalPowerStation_SecondDoor"
    },
    {
      "mesh": 9,
      "name": "CoalPowerStation_SecondDoor_Placeable_0"
    }
  ],
  "samplers": [
    {
      "magFilter": 9728,
      "minFilter": 9728,
      "wrapS": 10497,
      "wrapT": 10497
    }
  ],
  "scene": 0,
  "scenes": [
    {
      "name": "Sketchfab_Scene",
      "nodes": [
        0
      ]
    }
  ],
  "textures": [
    {
      "sampler": 0,
      "source": 0
    },
    {
      "sampler": 0,
      "source": 1
    },
    {
      "sampler": 0,
      "source": 2
    }
  ]
}
