{
  "accessors": [
    {
      "bufferView": 2,
      "componentType": 5126,
      "count": 1001,
      "max": [
        0.4999999701976776,
        0.0,
        0.45000001788139343
      ],
      "min": [
        -0.4999999701976776,
        -0.5,
        0.0
      ],
      "type": "VEC3"
    },
    {
      "bufferView": 2,
      "byteOffset": 12012,
      "componentType": 5126,
      "count": 1001,
      "max": [
        1.0,
        1.0,
        1.0
      ],
      "min": [
        -1.0,
        -1.0,
        -1.0
      ],
      "type": "VEC3"
    },
    {
      "bufferView": 1,
      "componentType": 5126,
      "count": 1001,
      "max": [
        0.9602560997009277,
        0.9708333015441895
      ],
      "min": [
        0.4375690221786499,
        0.017638862133026123
      ],
      "type": "VEC2"
    },
    {
      "bufferView": 0,
      "componentType": 5125,
      "count": 1554,
      "type": "SCALAR"
    },
    {
      "bufferView": 2,
      "byteOffset": 24024,
      "componentType": 5126,
      "count": 2784,
      "max": [
        0.3999999463558197,
        -0.09999999403953552,
        1.899999976158142
      ],
      "min": [
        -0.3999999463558197,
        -0.4000000059604645,
        0.09999999403953552
      ],
      "type": "VEC3"
    },
    {
      "bufferView": 2,
      "byteOffset": 57432,
      "componentType": 5126,
      "count": 2784,
      "max": [
        1.0,
        1.0,
        1.0
      ],
      "min": [
        -1.0,
        -1.0,
        -1.0
      ],
      "type": "VEC3"
    },
    {
      "bufferView": 1,
      "byteOffset": 8008,
      "componentType": 5126,
      "count": 2784,
      "max": [
        0.984857439994812,
        0.9708419442176819
      ],
      "min": [
        0.45147705078125,
        0.029166698455810547
      ],
      "type": "VEC2"
    },
    {
      "bufferView": 0,
      "byteOffset": 6216,
      "componentType": 5125,
      "count": 4488,
      "type": "SCALAR"
    },
    {
      "bufferView": 2,
      "byteOffset": 90840,
      "componentType": 5126,
      "count": 944,
      "max": [
        0.3749999403953552,
        -0.15000000596046448,
        0.699999988079071
      ],
      "min": [
        -0.3749999403953552,
        -0.25,
        0.3999999761581421
      ],
      "type": "VEC3"
    },
    {
      "bufferView": 2,
      "byteOffset": 102168,
      "componentType": 5126,
      "count": 944,
      "max": [
        1.0,
        1.0,
        1.0
      ],
      "min": [
        -1.0,
        -1.0,
        -1.0
      ],
      "type": "VEC3"
    },
    {
      "bufferView": 1,
      "byteOffset": 30280,
      "componentType": 5126,
      "count": 944,
      "max": [
        0.9577056765556335,
        0.9670878648757935
      ],
      "min": [
        0.457705557346344,
        0.09208768606185913
      ],
      "type": "VEC2"
    },
    {
      "bufferView": 0,
      "byteOffset": 24168,
      "componentType": 5125,
      "count": 1512,
      "type": "SCALAR"
    },
    {
      "bufferView": 2,
      "byteOffset": 113496,
      "componentType": 5126,
      "count": 3638,
      "max": [
        0.17500002682209015,
        1.2473070621490479,
        0.7149999141693115
      ],
      "min": [
        -0.17500002682209015,
        -4.4073486328125,
        -0.6070306897163391
      ],
      "type": "VEC3"
    },
    {
      "bufferView": 2,
      "byteOffset": 157152,
      "componentType": 5126,
      "count": 3638,
      "max": [
        1.0,
        1.0,
        1.0
      ],
      "min": [
        -1.0,
        -1.0,
        -1.0
      ],
      "type": "VEC3"
    },
    {
      "bufferView": 1,
      "byteOffset": 37832,
      "componentType": 5126,
      "count": 3638,
      "max": [
        0.9962607622146606,
        0.987500011920929
      ],
      "min": [
        0.3206714987754822,
        0.012499988079071045
      ],
      "type": "VEC2"
    },
    {
      "bufferView": 0,
      "byteOffset": 30216,
      "componentType": 5125,
      "count": 6030,
      "type": "SCALAR"
    },
    {
      "bufferView": 2,
      "byteOffset": 200808,
      "componentType": 5126,
      "count": 3638,
      "max": [
        0.17500002682209015,
        1.2473070621490479,
        0.7149999141693115
      ],
      "min": [
        -0.17500002682209015,
        -4.4073486328125,
        -0.6070306897163391
      ],
      "type": "VEC3"
    },
    {
      "bufferView": 2,
      "byteOffset": 244464,
      "componentType": 5126,
      "count": 3638,
      "max": [
        1.0,
        1.0,
        1.0
      ],
      "min": [
        -1.0,
        -1.0,
        -1.0
      ],
      "type": "VEC3"
    },
    {
      "bufferView": 1,
      "byteOffset": 66936,
      "componentType": 5126,
      "count": 3638,
      "max": [
        0.9962607622146606,
        0.987500011920929
      ],
      "min": [
        0.3206714987754822,
        0.012499988079071045
      ],
      "type": "VEC2"
    },
    {
      "bufferView": 0,
      "byteOffset": 54336,
      "componentType": 5125,
      "count": 6030,
      "type": "SCALAR"
    },
    {
      "bufferView": 2,
      "byteOffset": 288120,
      "componentType": 5126,
      "count": 3638,
      "max": [
        0.17500002682209015,
        1.2473070621490479,
        0.7149999141693115
      ],
      "min": [
        -0.17500002682209015,
        -4.4073486328125,
        -0.6070306897163391
      ],
      "type": "VEC3"
    },
    {
      "bufferView": 2,
      "byteOffset": 331776,
      "componentType": 5126,
      "count": 3638,
      "max": [
        1.0,
        1.0,
        1.0
      ],
      "min": [
        -1.0,
        -1.0,
        -1.0
      ],
      "type": "VEC3"
    },
    {
      "bufferView": 1,
      "byteOffset": 96040,
      "componentType": 5126,
      "count": 3638,
      "max": [
        0.9962607622146606,
        0.987500011920929
      ],
      "min": [
        0.3206714987754822,
        0.012499988079071045
      ],
      "type": "VEC2"
    },
    {
      "bufferView": 0,
      "byteOffset": 78456,
      "componentType": 5125,
      "count": 6030,
      "type": "SCALAR"
    },
    {
      "bufferView": 2,
      "byteOffset": 375432,
      "componentType": 5126,
      "count": 3638,
      "max": [
        0.17500002682209015,
        1.2473070621490479,
        0.7149999141693115
      ],
      "min": [
        -0.17500002682209015,
        -4.4073486328125,
        -0.6070306897163391
      ],
      "type": "VEC3"
    },
    {
      "bufferView": 2,
      "byteOffset": 419088,
      "componentType": 5126,
      "count": 3638,
      "max": [
        1.0,
        1.0,
        1.0
      ],
      "min": [
        -1.0,
        -1.0,
        -1.0
      ],
      "type": "VEC3"
    },
    {
      "bufferView": 1,
      "byteOffset": 125144,
      "componentType": 5126,
      "count": 3638,
      "max": [
        0.9962607622146606,
        0.987500011920929
      ],
      "min": [
        0.3206714987754822,
        0.012499988079071045
      ],
      "type": "VEC2"
    },
    {
      "bufferView": 0,
      "byteOffset": 102576,
      "componentType": 5125,
      "count": 6030,
      "type": "SCALAR"
    },
    {
      "bufferView": 2,
      "byteOffset": 462744,
      "componentType": 5126,
      "count": 3638,
      "max": [
        0.17500002682209015,
        1.2473070621490479,
        0.7149999141693115
      ],
      "min": [
        -0.17500002682209015,
        -4.4073486328125,
        -0.6070306897163391
      ],
      "type": "VEC3"
    },
    {
      "bufferView": 2,
      "byteOffset": 506400,
      "componentType": 5126,
      "count": 3638,
      "max": [
        1.0,
        1.0,
        1.0
      ],
      "min": [
        -1.0,
        -1.0,
        -1.0
      ],
      "type": "VEC3"
    },
    {
      "bufferView": 1,
      "byteOffset": 154248,
      "componentType": 5126,
      "count": 3638,
      "max": [
        0.9962607622146606,
        0.987500011920929
      ],
      "min": [
        0.3206714987754822,
        0.012499988079071045
      ],
      "type": "VEC2"
    },
    {
      "bufferView": 0,
      "byteOffset": 126696,
      "componentType": 5125,
      "count": 6030,
      "type": "SCALAR"
    },
    {
      "bufferView": 2,
      "byteOffset": 550056,
      "componentType": 5126,
      "count": 3638,
      "max": [
        0.17500002682209015,
        1.2473070621490479,
        0.7149999141693115
      ],
      "min": [
        -0.17500002682209015,
        -4.4073486328125,
        -0.6070306897163391
      ],
      "type": "VEC3"
    },
    {
      "bufferView": 2,
      "byteOffset": 593712,
      "componentType": 5126,
      "count": 3638,
      "max": [
        1.0,
        1.0,
        1.0
      ],
      "min": [
        -1.0,
        -1.0,
        -1.0
      ],
      "type": "VEC3"
    },
    {
      "bufferView": 1,
      "byteOffset": 183352,
      "componentType": 5126,
      "count": 3638,
      "max": [
        0.9962607622146606,
        0.987500011920929
      ],
      "min": [
        0.3206714987754822,
        0.012499988079071045
      ],
      "type": "VEC2"
    },
    {
      "bufferView": 0,
      "byteOffset": 150816,
      "componentType": 5125,
      "count": 6030,
      "type": "SCALAR"
    }
  ],
  "asset": {
    "extras": {
      "author": "MRowa (https://sketchfab.com/MRowa)",
      "license": "CC-BY-SA-4.0 (http://creativecommons.org/licenses/by-sa/4.0/)",
      "source": "https://sketchfab.com/3d-models/weapon-stand-340c8c7ff8504534a92302c65954a4a0",
      "title": "Weapon Stand"
    },
    "generator": "Sketchfab-12.66.0",
    "version": "2.0"
  },
  "bufferViews": [
    {
      "buffer": 0,
      "byteLength": 174936,
      "name": "floatBufferViews",
      "target": 34963
    },
    {
      "buffer": 0,
      "byteLength": 212456,
      "byteOffset": 174936,
      "byteStride": 8,
      "name": "floatBufferViews",
      "target": 34962
    },
    {
      "buffer": 0,
      "byteLength": 637368,
      "byteOffset": 387392,
      "byteStride": 12,
      "name": "floatBufferViews",
      "target": 34962
    }
  ],
  "buffers": [
    {
      "byteLength": 1024760,
      "uri": "scene.bin"
    }
  ],
  "images": [
    {
      "uri": "textures/Placeable_baseColor.png"
    },
    {
      "uri": "textures/Placeable_metallicRoughness.png"
    },
    {
      "uri": "textures/Placeable_emissive.png"
    }
  ],
  "materials": [
    {
      "doubleSided": true,
      "emissiveFactor": [
        1.0,
        1.0,
        1.0
      ],
      "emissiveTexture": {
        "index": 2
      },
      "name": "Placeable",
      "pbrMetallicRoughness": {
        "baseColorTexture": {
          "index": 0
        },
        "metallicRoughnessTexture": {
          "index": 1
        },
        "roughnessFactor": 0.5
      }
    },
    {
      "doubleSided": true,
      "emissiveFactor": [
        1.0,
        1.0,
        1.0
      ],
      "emissiveTexture": {
        "index": 2
      },
      "name": "Weapon.001",
      "pbrMetallicRoughness": {
        "baseColorTexture": {
          "index": 0
        },
        "metallicRoughnessTexture": {
          "index": 1
        },
        "roughnessFactor": 0.5
      }
    }
  ],
  "meshes": [
    {
      "name": "WeaponStand_Placeable_0",
      "primitives": [
        {
          "attributes": {
            "NORMAL": 1,
            "POSITION": 0,
            "TEXCOORD_0": 2
          },
          "indices": 3,
          "material": 0,
          "mode": 4
        }
      ]
    },
    {
      "name": "Locker_WeaponStand_Placeable_0",
      "primitives": [
        {
          "attributes": {
            "NORMAL": 5,
            "POSITION": 4,
            "TEXCOORD_0": 6
          },
          "indices": 7,
          "material": 0,
          "mode": 4
        }
      ]
    },
    {
      "name": "Locker_WeaponStand_Header_Placeable_0",
      "primitives": [
        {
          "attributes": {
            "NORMAL": 9,
            "POSITION": 8,
            "TEXCOORD_0": 10
          },
          "indices": 11,
          "material": 0,
          "mode": 4
        }
      ]
    },
    {
      "name": "EnergyScepter_Body_Weapon.001_0",
      "primitives": [
        {
          "attributes": {
            "NORMAL": 13,
            "POSITION": 12,
            "TEXCOORD_0": 14
          },
          "indices": 15,
          "material": 1,
          "mode": 4
        }
      ]
    },
    {
      "name": "EnergyScepter_Body.001_Weapon.001_0",
      "primitives": [
        {
          "attributes": {
            "NORMAL": 17,
            "POSITION": 16,
            "TEXCOORD_0": 18
          },
          "indices": 19,
          "material": 1,
          "mode": 4
        }
      ]
    },
    {
      "name": "EnergyScepter_Body.002_Weapon.001_0",
      "primitives": [
        {
          "attributes": {
            "NORMAL": 21,
            "POSITION": 20,
            "TEXCOORD_0": 22
          },
          "indices": 23,
          "material": 1,
          "mode": 4
        }
      ]
    },
    {
      "name": "EnergyScepter_Body.003_Weapon.001_0",
      "primitives": [
        {
          "attributes": {
            "NORMAL": 25,
            "POSITION": 24,
            "TEXCOORD_0": 26
          },
          "indices": 27,
          "material": 1,
          "mode": 4
        }
      ]
    },
    {
      "name": "EnergyScepter_Body.004_Weapon.001_0",
      "primitives": [
        {
          "attributes": {
            "NORMAL": 29,
            "POSITION": 28,
            "TEXCOORD_0": 30
          },
          "indices": 31,
          "material": 1,
          "mode": 4
        }
      ]
    },
    {
      "name": "EnergyScepter_Body.005_Weapon.001_0",
      "primitives": [
        {
          "attributes": {
            "NORMAL": 33,
            "POSITION": 32,
            "TEXCOORD_0": 34
          },
          "indices": 35,
          "material": 1,
          "mode": 4
        }
      ]
    }
  ],
  "nodes": [
    {
      "children": [
        1
      ],
      "matrix": [
        1.0,
        0.0,
        0.0,
        0.0,
        0.0,
        2.220446049250313e-16,
        -1.0,
        0.0,
        0.0,
        1.0,
        2.220446049250313e-16,
        0.0,
        0.0,
        0.0,
        0.0,
        1.0
      ],
      "name": "Sketchfab_model"
    },
    {
      "children": [
        2
      ],
      "matrix": [
        1.0,
        0.0,
        0.0,
        0.0,
        0.0,
        0.0,
        1.0,
        0.0,
        0.0,
        -1.0,
        0.0,
        0.0,
        0.0,
        0.0,
        0.0,
        1.0
      ],
      "name": "LockerWeaponStandPreview.fbx"
    },
    {
      "children": [
        3
      ],
      "name": "RootNode"
    },
    {
      "children": [
        4,
        5
      ],
      "matrix": [
        100.0,
        0.0,
        0.0,
        0.0,
        0.0,
        -1.629206793918314e-05,
        -99.99999999999868,
        0.0,
        0.0,
        99.99999999999868,
        -1.629206793918314e-05,
        0.0,
        0.0,
        0.0,
        0.0,
        1.0
      ],
      "name": "WeaponStand"
    },
    {
      "mesh": 0,
      "name": "WeaponStand_Placeable_0"
    },
    {
      "children": [
        6,
        7,
        9,
        12,
        15,
        18,
        21,
        24
      ],
      "matrix": [
        1.0,
        0.0,
        0.0,
        0.0,
        0.0,
        1.0,
        -2.646977960169688e-23,
        0.0,
        0.0,
        2.646977960169688e-23,
        1.0,
        0.0,
        0.0,
        0.0,
        0.0,
        1.0
      ],
      "name": "Locker_WeaponStand"
    },
    {
      "mesh": 1,
      "name": "Locker_WeaponStand_Placeable_0"
    },
    {
      "children": [
        8
      ],
      "matrix": [
        1.0,
        0.0,
        0.0,
        0.0,
        0.0,
        1.0,
        -2.646977960169688e-23,
        0.0,
        0.0,
        2.646977960169688e-23,
        1.0,
        0.0,
        0.0,
        0.0,
        0.0,
        1.0
      ],
      "name": "Locker_WeaponStand_Header"
    },
    {
      "mesh": 2,
      "name": "Locker_WeaponStand_Header_Placeable_0"
    },
    {
      "children": [
        10
      ],
      "matrix": [
        -0.19999998807906874,
        -3.019915801955721e-08,
        5.194178999290002e-09,
        0.0,
        1.28758599926947e-10,
        -0.0347296179839347,
        -0.19696154159205428,
        0.0,
        3.064232467992265e-08,
        -0.19696154159205198,
        0.03472961798393428,
        0.0,
        0.33333325386047363,
        -0.3000001609325409,
        0.550000011920929,
        1.0
      ],
      "name": "EnergyScepter"
    },
    {
      "children": [
        11
      ],
      "matrix": [
        1.0,
        -8.881784230088475e-16,
        2.2204460492503126e-16,
        0.0,
        8.881783700692881e-16,
        0.9999999403953552,
        0.0,
        0.0,
        -2.2204459169014146e-16,
        1.9721521528499328e-31,
        0.9999999403953552,
        0.0,
        2.220446049250313e-16,
        -5.960464477539063e-08,
        -1.1920928955078125e-07,
        1.0
      ],
      "name": "EnergyScepter_Body"
    },
    {
      "mesh": 3,
      "name": "EnergyScepter_Body_Weapon.001_0"
    },
    {
      "children": [
        13
      ],
      "matrix": [
        -0.19999998807906874,
        -3.019915801955721e-08,
        5.194178999290002e-09,
        0.0,
        1.28758599926947e-10,
        -0.0347296179839347,
        -0.19696154159205428,
        0.0,
        3.064232467992265e-08,
        -0.19696154159205198,
        0.03472961798393428,
        0.0,
        0.19999992847442627,
        -0.3000001609325409,
        0.550000011920929,
        1.0
      ],
      "name": "EnergyScepter.001"
    },
    {
      "children": [
        14
      ],
      "matrix": [
        1.0,
        -8.881784230088475e-16,
        2.2204460492503126e-16,
        0.0,
        8.881783700692881e-16,
        0.9999999403953552,
        0.0,
        0.0,
        -2.2204459169014146e-16,
        1.9721521528499328e-31,
        0.9999999403953552,
        0.0,
        -5.960464477539063e-08,
        -5.960464477539063e-08,
        0.0,
        1.0
      ],
      "name": "EnergyScepter_Body.001"
    },
    {
      "mesh": 4,
      "name": "EnergyScepter_Body.001_Weapon.001_0"
    },
    {
      "children": [
        16
      ],
      "matrix": [
        -0.19999998807906874,
        -3.019915801955721e-08,
        5.194178999290002e-09,
        0.0,
        1.28758599926947e-10,
        -0.0347296179839347,
        -0.19696154159205428,
        0.0,
        3.064232467992265e-08,
        -0.19696154159205198,
        0.03472961798393428,
        0.0,
        0.0666666030883789,
        -0.3000001609325409,
        0.550000011920929,
        1.0
      ],
      "name": "EnergyScepter.002"
    },
    {
      "children": [
        17
      ],
      "matrix": [
        1.0,
        -8.881784230088475e-16,
        2.2204460492503126e-16,
        0.0,
        8.881783700692881e-16,
        0.9999999403953552,
        0.0,
        0.0,
        -2.2204459169014146e-16,
        1.9721521528499328e-31,
        0.9999999403953552,
        0.0,
        0.0,
        -5.960464477539063e-08,
        -1.1920928955078125e-07,
        1.0
      ],
      "name": "EnergyScepter_Body.002"
    },
    {
      "mesh": 5,
      "name": "EnergyScepter_Body.002_Weapon.001_0"
    },
    {
      "children": [
        19
      ],
      "matrix": [
        -0.19999998807906874,
        -3.019915801955721e-08,
        5.194178999290002e-09,
        0.0,
        1.28758599926947e-10,
        -0.0347296179839347,
        -0.19696154159205428,
        0.0,
        3.064232467992265e-08,
        -0.19696154159205198,
        0.03472961798393428,
        0.0,
        -0.0666666030883789,
        -0.3000001609325409,
        0.550000011920929,
        1.0
      ],
      "name": "EnergyScepter.003"
    },
    {
      "children": [
        20
      ],
      "matrix": [
        1.0,
        -8.881784230088475e-16,
        2.2204460492503126e-16,
        0.0,
        8.881783700692881e-16,
        0.9999999403953552,
        0.0,
        0.0,
        -2.2204459169014146e-16,
        1.9721521528499328e-31,
        0.9999999403953552,
        0.0,
        -2.9802322387695313e-08,
        -5.960464477539063e-08,
        -1.1920928955078125e-07,
        1.0
      ],
      "name": "EnergyScepter_Body.003"
    },
    {
      "mesh": 6,
      "name": "EnergyScepter_Body.003_Weapon.001_0"
    },
    {
      "children": [
        22
      ],
      "matrix": [
        -0.19999998807906874,
        -3.019915801955721e-08,
        5.194178999290002e-09,
        0.0,
        1.28758599926947e-10,
        -0.0347296179839347,
        -0.19696154159205428,
        0.0,
        3.064232467992265e-08,
        -0.19696154159205198,
        0.03472961798393428,
        0.0,
        -0.20000004768371582,
        -0.3000001609325409,
        0.550000011920929,
        1.0
      ],
      "name": "EnergyScepter.004"
    },
    {
      "children": [
        23
      ],
      "matrix": [
        1.0,
        -8.881784230088475e-16,
        2.2204460492503126e-16,
        0.0,
        8.881783700692881e-16,
        0.9999999403953552,
        0.0,
        0.0,
        -2.2204459169014146e-16,
        1.9721521528499328e-31,
        0.9999999403953552,
        0.0,
        1.1920928955078125e-07,
        -5.960464477539063e-08,
        -4.440892098500626e-16,
        1.0
      ],
      "name": "EnergyScepter_Body.004"
    },
    {
      "mesh": 7,
      "name": "EnergyScepter_Body.004_Weapon.001_0"
    },
    {
      "children": [
        25
      ],
      "matrix": [
        -0.19999998807906874,
        -3.019915801955721e-08,
        5.194178999290002e-09,
        0.0,
        1.28758599926947e-10,
        -0.0347296179839347,
        -0.19696154159205428,
        0.0,
        3.064232467992265e-08,
        -0.19696154159205198,
        0.03472961798393428,
        0.0,
        -0.3299999237060547,
        -0.3000001609325409,
        0.550000011920929,
        1.0
      ],
      "name": "EnergyScepter.005"
    },
    {
      "children": [
        26
      ],
      "matrix": [
        1.0,
        -8.881784230088475e-16,
        2.2204460492503126e-16,
        0.0,
        8.881783700692881e-16,
        0.9999999403953552,
        0.0,
        0.0,
        -2.2204459169014146e-16,
        1.9721521528499328e-31,
        0.9999999403953552,
        0.0,
        2.220446049250313e-16,
        -5.960464477539063e-08,
        -1.1920928955078125e-07,
        1.0
      ],
      "name": "EnergyScepter_Body.005"
    },
    {
      "mesh": 8,
      "name": "EnergyScepter_Body.005_Weapon.001_0"
    }
  ],
  "samplers": [
    {
      "magFilter": 9728,
      "minFilter": 9728,
      "wrapS": 10497,
      "wrapT": 10497
    }
  ],
  "scene": 0,
  "scenes": [
    {
      "name": "Sketchfab_Scene",
      "nodes": [
        0
      ]
    }
  ],
  "textures": [
    {
      "sampler": 0,
      "source": 0
    },
    {
      "sampler": 0,
      "source": 1
    },
    {
      "sampler": 0,
      "source": 2
    }
  ]
}
