{
  "accessors": [
    {
      "bufferView": 2,
      "componentType": 5126,
      "count": 24034,
      "max": [
        35.93471145629883,
        35.93471145629883,
        57.00197219848633
      ],
      "min": [
        -35.93471145629883,
        -35.93471145629883,
        -21.0
      ],
      "type": "VEC3"
    },
    {
      "bufferView": 2,
      "byteOffset": 288408,
      "componentType": 5126,
      "count": 24034,
      "max": [
        1.0,
        1.0,
        1.0
      ],
      "min": [
        -1.0,
        -1.0,
        -1.0
      ],
      "type": "VEC3"
    },
    {
      "bufferView": 1,
      "componentType": 5126,
      "count": 24034,
      "max": [
        0.9601857662200928,
        0.987445592880249
      ],
      "min": [
        0.012499988079071045,
        0.018314838409423828
      ],
      "type": "VEC2"
    },
    {
      "bufferView": 0,
      "componentType": 5125,
      "count": 38010,
      "type": "SCALAR"
    },
    {
      "bufferView": 2,
      "byteOffset": 576816,
      "componentType": 5126,
      "count": 2148,
      "max": [
        6.0,
        6.0,
        0.0
      ],
      "min": [
        -6.0,
        -6.0,
        -28.0
      ],
      "type": "VEC3"
    },
    {
      "bufferView": 2,
      "byteOffset": 602592,
      "componentType": 5126,
      "count": 2148,
      "max": [
        0.9238797426223755,
        0.9238796234130859,
        0.0
      ],
      "min": [
        -0.9238797426223755,
        -0.9238796234130859,
        -1.0
      ],
      "type": "VEC3"
    },
    {
      "bufferView": 1,
      "byteOffset": 192272,
      "componentType": 5126,
      "count": 2148,
      "max": [
        0.612500011920929,
        0.987500011920929
      ],
      "min": [
        0.512499988079071,
        0.887499988079071
      ],
      "type": "VEC2"
    },
    {
      "bufferView": 0,
      "byteOffset": 152040,
      "componentType": 5125,
      "count": 4608,
      "type": "SCALAR"
    },
    {
      "bufferView": 2,
      "byteOffset": 628368,
      "componentType": 5126,
      "count": 3648,
      "max": [
        15.760313987731934,
        15.760308265686035,
        0.0
      ],
      "min": [
        -15.760313987731934,
        -15.760308265686035,
        -23.429931640625
      ],
      "type": "VEC3"
    },
    {
      "bufferView": 2,
      "byteOffset": 672144,
      "componentType": 5126,
      "count": 3648,
      "max": [
        0.9997470378875732,
        0.9997469782829285,
        0.930409848690033
      ],
      "min": [
        -0.9997470378875732,
        -0.9997469782829285,
        -0.9970749020576477
      ],
      "type": "VEC3"
    },
    {
      "bufferView": 1,
      "byteOffset": 209456,
      "componentType": 5126,
      "count": 3648,
      "max": [
        0.612500011920929,
        0.987500011920929
      ],
      "min": [
        0.512499988079071,
        0.887499988079071
      ],
      "type": "VEC2"
    },
    {
      "bufferView": 0,
      "byteOffset": 170472,
      "componentType": 5125,
      "count": 5472,
      "type": "SCALAR"
    },
    {
      "bufferView": 2,
      "byteOffset": 715920,
      "componentType": 5126,
      "count": 3308,
      "max": [
        14.959053039550781,
        14.959060668945313,
        3.0
      ],
      "min": [
        -14.959053039550781,
        -14.959060668945313,
        2.0
      ],
      "type": "VEC3"
    },
    {
      "bufferView": 2,
      "byteOffset": 755616,
      "componentType": 5126,
      "count": 3308,
      "max": [
        1.0,
        1.0,
        1.0
      ],
      "min": [
        -1.0,
        -1.0,
        -1.0
      ],
      "type": "VEC3"
    },
    {
      "bufferView": 1,
      "byteOffset": 238640,
      "componentType": 5126,
      "count": 3308,
      "max": [
        0.48750001192092896,
        0.862500011920929
      ],
      "min": [
        0.38749998807907104,
        0.762499988079071
      ],
      "type": "VEC2"
    },
    {
      "bufferView": 0,
      "byteOffset": 192360,
      "componentType": 5125,
      "count": 5472,
      "type": "SCALAR"
    }
  ],
  "asset": {
    "extras": {
      "author": "MRowa (https://sketchfab.com/MRowa)",
      "license": "CC-BY-SA-4.0 (http://creativecommons.org/licenses/by-sa/4.0/)",
      "source": "https://sketchfab.com/3d-models/geothermal-power-station-661ad6e281344ab9a9751124ee793d56",
      "title": "Geothermal Power Station"
    },
    "generator": "Sketchfab-12.66.0",
    "version": "2.0"
  },
  "bufferViews": [
    {
      "buffer": 0,
      "byteLength": 214248,
      "name": "floatBufferViews",
      "target": 34963
    },
    {
      "buffer": 0,
      "byteLength": 265104,
      "byteOffset": 214248,
      "byteStride": 8,
      "name": "floatBufferViews",
      "target": 34962
    },
    {
      "buffer": 0,
      "byteLength": 795312,
      "byteOffset": 479352,
      "byteStride": 12,
      "name": "floatBufferViews",
      "target": 34962
    }
  ],
  "buffers": [
    {
      "byteLength": 1274664,
      "uri": "scene.bin"
    }
  ],
  "images": [
    {
      "uri": "textures/Placeable_baseColor.png"
    },
    {
      "uri": "textures/Placeable_metallicRoughness.png"
    },
    {
      "uri": "textures/Placeable_emissive.png"
    }
  ],
  "materials": [
    {
      "doubleSided": true,
      "emissiveFactor": [
        1.0,
        1.0,
        1.0
      ],
      "emissiveTexture": {
        "index": 2
      },
      "name": "Placeable",
      "pbrMetallicRoughness": {
        "baseColorTexture": {
          "index": 0
        },
        "metallicRoughnessTexture": {
          "index": 1
        },
        "roughnessFactor": 0.8040408205773457
      }
    }
  ],
  "meshes": [
    {
      "name": "GeothermalPowerStation_body_Placeable_0",
      "primitives": [
        {
          "attributes": {
            "NORMAL": 1,
            "POSITION": 0,
            "TEXCOORD_0": 2
          },
          "indices": 3,
          "material": 0,
          "mode": 4
        }
      ]
    },
    {
      "name": "GeothermalPowerStation_Pipe_Placeable_0",
      "primitives": [
        {
          "attributes": {
            "NORMAL": 5,
            "POSITION": 4,
            "TEXCOORD_0": 6
          },
          "indices": 7,
          "material": 0,
          "mode": 4
        }
      ]
    },
    {
      "name": "GeothermalPowerStation_PipeContact_Placeable_0",
      "primitives": [
        {
          "attributes": {
            "NORMAL": 9,
            "POSITION": 8,
            "TEXCOORD_0": 10
          },
          "indices": 11,
          "material": 0,
          "mode": 4
        }
      ]
    },
    {
      "name": "GeothermalPowerStation_Fancs_Placeable_0",
      "primitives": [
        {
          "attributes": {
            "NORMAL": 13,
            "POSITION": 12,
            "TEXCOORD_0": 14
          },
          "indices": 15,
          "material": 0,
          "mode": 4
        }
      ]
    }
  ],
  "nodes": [
    {
      "children": [
        1
      ],
      "matrix": [
        1.0,
        0.0,
        0.0,
        0.0,
        0.0,
        2.220446049250313e-16,
        -1.0,
        0.0,
        0.0,
        1.0,
        2.220446049250313e-16,
        0.0,
        0.0,
        -0.0002515980741009117,
        0.00040731858462095255,
        1.0
      ],
      "name": "Sketchfab_model"
    },
    {
      "children": [
        2
      ],
      "matrix": [
        1.0,
        0.0,
        0.0,
        0.0,
        0.0,
        0.0,
        1.0,
        0.0,
        0.0,
        -1.0,
        0.0,
        0.0,
        0.0,
        0.0,
        0.0,
        1.0
      ],
      "name": "4edbba7e2d2041088261ddae027472c1.fbx"
    },
    {
      "children": [
        3
      ],
      "name": "RootNode"
    },
    {
      "children": [
        4,
        6,
        8,
        10
      ],
      "matrix": [
        100.0,
        0.0,
        0.0,
        0.0,
        0.0,
        -1.629206793918314e-05,
        -99.99999999999868,
        0.0,
        0.0,
        99.99999999999868,
        -1.629206793918314e-05,
        0.0,
        0.0,
        0.0,
        0.0,
        1.0
      ],
      "name": "GeothermalPowerStation"
    },
    {
      "children": [
        5
      ],
      "matrix": [
        1.0,
        0.0,
        0.0,
        0.0,
        0.0,
        1.0,
        -2.646977960169688e-23,
        0.0,
        0.0,
        2.646977960169688e-23,
        1.0,
        0.0,
        0.0,
        0.0,
        0.0,
        1.0
      ],
      "name": "GeothermalPowerStation_body"
    },
    {
      "mesh": 0,
      "name": "GeothermalPowerStation_body_Placeable_0"
    },
    {
      "children": [
        7
      ],
      "matrix": [
        1.0,
        0.0,
        0.0,
        0.0,
        0.0,
        1.0,
        -2.646977960169688e-23,
        0.0,
        0.0,
        2.646977960169688e-23,
        1.0,
        0.0,
        0.0,
        4.235164736271502e-22,
        16.0,
        1.0
      ],
      "name": "GeothermalPowerStation_Pipe"
    },
    {
      "mesh": 1,
      "name": "GeothermalPowerStation_Pipe_Placeable_0"
    },
    {
      "children": [
        9
      ],
      "matrix": [
        1.0,
        0.0,
        0.0,
        0.0,
        0.0,
        1.0,
        -2.646977960169688e-23,
        0.0,
        0.0,
        2.646977960169688e-23,
        1.0,
        0.0,
        0.0,
        -1.0587911840678754e-22,
        -4.0,
        1.0
      ],
      "name": "GeothermalPowerStation_PipeContact"
    },
    {
      "mesh": 2,
      "name": "GeothermalPowerStation_PipeContact_Placeable_0"
    },
    {
      "children": [
        11
      ],
      "matrix": [
        1.0,
        0.0,
        0.0,
        0.0,
        0.0,
        1.0,
        -2.646977960169688e-23,
        0.0,
        0.0,
        2.646977960169688e-23,
        1.0,
        0.0,
        0.0,
        0.0,
        0.0,
        1.0
      ],
      "name": "GeothermalPowerStation_Fancs"
    },
    {
      "mesh": 3,
      "name": "GeothermalPowerStation_Fancs_Placeable_0"
    }
  ],
  "samplers": [
    {
      "magFilter": 9728,
      "minFilter": 9728,
      "wrapS": 10497,
      "wrapT": 10497
    }
  ],
  "scene": 0,
  "scenes": [
    {
      "name": "Sketchfab_Scene",
      "nodes": [
        0
      ]
    }
  ],
  "textures": [
    {
      "sampler": 0,
      "source": 0
    },
    {
      "sampler": 0,
      "source": 1
    },
    {
      "sampler": 0,
      "source": 2
    }
  ]
}
