{
  "accessors": [
    {
      "bufferView": 2,
      "componentType": 5126,
      "count": 2738,
      "max": [
        5.000000476837158,
        4.999999046325684,
        5.019999980926514
      ],
      "min": [
        -4.999999523162842,
        -5.000000476837158,
        0.0
      ],
      "type": "VEC3"
    },
    {
      "bufferView": 2,
      "byteOffset": 32856,
      "componentType": 5126,
      "count": 2738,
      "max": [
        0.9994797706604004,
        0.9994798302650452,
        1.0
      ],
      "min": [
        -0.9994797706604004,
        -0.9994797706604004,
        -0.9906788468360901
      ],
      "type": "VEC3"
    },
    {
      "bufferView": 1,
      "componentType": 5126,
      "count": 2738,
      "max": [
        0.98103266954422,
        0.9773803353309631
      ],
      "min": [
        0.39289534091949463,
        0.01795172691345215
      ],
      "type": "VEC2"
    },
    {
      "bufferView": 0,
      "componentType": 5125,
      "count": 4314,
      "type": "SCALAR"
    },
    {
      "bufferView": 2,
      "byteOffset": 65712,
      "componentType": 5126,
      "count": 640,
      "max": [
        5.000000476837158,
        4.999999046325684,
        0.0
      ],
      "min": [
        -4.999999523162842,
        -5.000000476837158,
        -2.0
      ],
      "type": "VEC3"
    },
    {
      "bufferView": 2,
      "byteOffset": 73392,
      "componentType": 5126,
      "count": 640,
      "max": [
        0.9951848387718201,
        0.9951848387718201,
        0.7071086168289185
      ],
      "min": [
        -0.9951849579811096,
        -0.9951848983764648,
        -0.7071095705032349
      ],
      "type": "VEC3"
    },
    {
      "bufferView": 1,
      "byteOffset": 21904,
      "componentType": 5126,
      "count": 640,
      "max": [
        0.8222655653953552,
        0.8125
      ],
      "min": [
        0.44556766748428345,
        0.6667813062667847
      ],
      "type": "VEC2"
    },
    {
      "bufferView": 0,
      "byteOffset": 17256,
      "componentType": 5125,
      "count": 960,
      "type": "SCALAR"
    },
    {
      "bufferView": 2,
      "byteOffset": 81072,
      "componentType": 5126,
      "count": 926,
      "max": [
        3.184396266937256,
        3.184396743774414,
        5.099999904632568
      ],
      "min": [
        -3.184396266937256,
        -3.184396743774414,
        0.0
      ],
      "type": "VEC3"
    },
    {
      "bufferView": 2,
      "byteOffset": 92184,
      "componentType": 5126,
      "count": 926,
      "max": [
        1.0,
        0.9996294379234314,
        1.0
      ],
      "min": [
        -1.0,
        -0.9996294975280762,
        -1.0
      ],
      "type": "VEC3"
    },
    {
      "bufferView": 1,
      "byteOffset": 27024,
      "componentType": 5126,
      "count": 926,
      "max": [
        0.862500011920929,
        0.9766827821731567
      ],
      "min": [
        0.3882501721382141,
        0.762499988079071
      ],
      "type": "VEC2"
    },
    {
      "bufferView": 0,
      "byteOffset": 21096,
      "componentType": 5125,
      "count": 1506,
      "type": "SCALAR"
    },
    {
      "bufferView": 2,
      "byteOffset": 103296,
      "componentType": 5126,
      "count": 1579,
      "max": [
        3.0000011920928955,
        3.833003520965576,
        3.6558969020843506
      ],
      "min": [
        -3.0000011920928955,
        -3.200000762939453,
        -2.0
      ],
      "type": "VEC3"
    },
    {
      "bufferView": 2,
      "byteOffset": 122244,
      "componentType": 5126,
      "count": 1579,
      "max": [
        1.0,
        1.0,
        0.99214768409729
      ],
      "min": [
        -1.0,
        -1.0,
        -0.9995133876800537
      ],
      "type": "VEC3"
    },
    {
      "bufferView": 1,
      "byteOffset": 34432,
      "componentType": 5126,
      "count": 1579,
      "max": [
        0.9764331579208374,
        0.9809590578079224
      ],
      "min": [
        0.02776437997817993,
        0.06372970342636108
      ],
      "type": "VEC2"
    },
    {
      "bufferView": 0,
      "byteOffset": 27120,
      "componentType": 5125,
      "count": 2460,
      "type": "SCALAR"
    },
    {
      "bufferView": 2,
      "byteOffset": 141192,
      "componentType": 5126,
      "count": 2810,
      "max": [
        4.050000190734863,
        5.199999809265137,
        7.585531711578369
      ],
      "min": [
        -6.535531997680664,
        -4.0,
        -3.0
      ],
      "type": "VEC3"
    },
    {
      "bufferView": 2,
      "byteOffset": 174912,
      "componentType": 5126,
      "count": 2810,
      "max": [
        1.0,
        1.0,
        1.0
      ],
      "min": [
        -1.0,
        -1.0,
        -1.0
      ],
      "type": "VEC3"
    },
    {
      "bufferView": 1,
      "byteOffset": 47064,
      "componentType": 5126,
      "count": 2810,
      "max": [
        0.8575000166893005,
        0.9735908508300781
      ],
      "min": [
        0.017499983310699463,
        0.6411510705947876
      ],
      "type": "VEC2"
    },
    {
      "bufferView": 0,
      "byteOffset": 36960,
      "componentType": 5125,
      "count": 4224,
      "type": "SCALAR"
    }
  ],
  "asset": {
    "extras": {
      "author": "MRowa (https://sketchfab.com/MRowa)",
      "license": "CC-BY-SA-4.0 (http://creativecommons.org/licenses/by-sa/4.0/)",
      "source": "https://sketchfab.com/3d-models/ads-400-air-defence-system-56b5b62835bf40cd8f506d69f21f0323",
      "title": "ADS-400: Air Defence System"
    },
    "generator": "Sketchfab-12.66.0",
    "version": "2.0"
  },
  "bufferViews": [
    {
      "buffer": 0,
      "byteLength": 53856,
      "name": "floatBufferViews",
      "target": 34963
    },
    {
      "buffer": 0,
      "byteLength": 69544,
      "byteOffset": 53856,
      "byteStride": 8,
      "name": "floatBufferViews",
      "target": 34962
    },
    {
      "buffer": 0,
      "byteLength": 208632,
      "byteOffset": 123400,
      "byteStride": 12,
      "name": "floatBufferViews",
      "target": 34962
    }
  ],
  "buffers": [
    {
      "byteLength": 332032,
      "uri": "scene.bin"
    }
  ],
  "images": [
    {
      "uri": "textures/Placeable_baseColor.png"
    },
    {
      "uri": "textures/Placeable_metallicRoughness.png"
    },
    {
      "uri": "textures/Placeable_emissive.png"
    }
  ],
  "materials": [
    {
      "doubleSided": true,
      "emissiveFactor": [
        1.0,
        1.0,
        1.0
      ],
      "emissiveTexture": {
        "index": 2
      },
      "name": "Placeable",
      "pbrMetallicRoughness": {
        "baseColorTexture": {
          "index": 0
        },
        "metallicRoughnessTexture": {
          "index": 1
        },
        "roughnessFactor": 0.8040408205773457
      }
    }
  ],
  "meshes": [
    {
      "name": "AirDefenseSystem-400_Placeable_0",
      "primitives": [
        {
          "attributes": {
            "NORMAL": 1,
            "POSITION": 0,
            "TEXCOORD_0": 2
          },
          "indices": 3,
          "material": 0,
          "mode": 4
        }
      ]
    },
    {
      "name": "ADS-400_Fundament_Placeable_0",
      "primitives": [
        {
          "attributes": {
            "NORMAL": 5,
            "POSITION": 4,
            "TEXCOORD_0": 6
          },
          "indices": 7,
          "material": 0,
          "mode": 4
        }
      ]
    },
    {
      "name": "ADS-400_Neck_Placeable_0",
      "primitives": [
        {
          "attributes": {
            "NORMAL": 9,
            "POSITION": 8,
            "TEXCOORD_0": 10
          },
          "indices": 11,
          "material": 0,
          "mode": 4
        }
      ]
    },
    {
      "name": "ADS-400_Head_Placeable_0",
      "primitives": [
        {
          "attributes": {
            "NORMAL": 13,
            "POSITION": 12,
            "TEXCOORD_0": 14
          },
          "indices": 15,
          "material": 0,
          "mode": 4
        }
      ]
    },
    {
      "name": "ADS-400_Gun_Placeable_0",
      "primitives": [
        {
          "attributes": {
            "NORMAL": 17,
            "POSITION": 16,
            "TEXCOORD_0": 18
          },
          "indices": 19,
          "material": 0,
          "mode": 4
        }
      ]
    }
  ],
  "nodes": [
    {
      "children": [
        1
      ],
      "matrix": [
        1.0,
        0.0,
        0.0,
        0.0,
        0.0,
        2.220446049250313e-16,
        -1.0,
        0.0,
        0.0,
        1.0,
        2.220446049250313e-16,
        0.0,
        0.0,
        0.0,
        0.0,
        1.0
      ],
      "name": "Sketchfab_model"
    },
    {
      "children": [
        2
      ],
      "matrix": [
        1.0,
        0.0,
        0.0,
        0.0,
        0.0,
        0.0,
        1.0,
        0.0,
        0.0,
        -1.0,
        0.0,
        0.0,
        0.0,
        0.0,
        0.0,
        1.0
      ],
      "name": "6f462676464d4868b8dcddc5bef2b6de.fbx"
    },
    {
      "children": [
        3
      ],
      "name": "RootNode"
    },
    {
      "children": [
        4,
        5,
        7
      ],
      "matrix": [
        100.0,
        0.0,
        0.0,
        0.0,
        0.0,
        -1.629206793918314e-05,
        -99.99999999999868,
        0.0,
        0.0,
        99.99999999999868,
        -1.629206793918314e-05,
        0.0,
        0.0,
        0.0,
        0.0,
        1.0
      ],
      "name": "AirDefenseSystem-400"
    },
    {
      "mesh": 0,
      "name": "AirDefenseSystem-400_Placeable_0"
    },
    {
      "children": [
        6
      ],
      "matrix": [
        1.0,
        0.0,
        0.0,
        0.0,
        0.0,
        1.0,
        -2.646977960169688e-23,
        0.0,
        0.0,
        2.646977960169688e-23,
        1.0,
        0.0,
        0.0,
        0.0,
        0.0,
        1.0
      ],
      "name": "ADS-400_Fundament"
    },
    {
      "mesh": 1,
      "name": "ADS-400_Fundament_Placeable_0"
    },
    {
      "children": [
        8,
        9
      ],
      "matrix": [
        0.7071067657322371,
        0.7071067966408576,
        -1.3234889800848441e-23,
        0.0,
        -0.7071067966408576,
        0.7071067657322371,
        0.0,
        0.0,
        9.358480121900514e-24,
        9.358480530972699e-24,
        1.0,
        0.0,
        1.1522041631906177e-06,
        -4.76837158203125e-07,
        4.900000095367432,
        1.0
      ],
      "name": "ADS-400_Neck"
    },
    {
      "mesh": 2,
      "name": "ADS-400_Neck_Placeable_0"
    },
    {
      "children": [
        10,
        11
      ],
      "matrix": [
        1.0,
        1.6653345369377348e-16,
        -6.617444900424221e-23,
        0.0,
        -1.177569786200261e-16,
        0.7071067657322371,
        -0.7071067966408576,
        0.0,
        -1.1775689018254215e-16,
        0.7071067966408576,
        0.7071067657322371,
        0.0,
        -1.1522042768774554e-06,
        4.991888999938965e-07,
        3.0999999046325684,
        1.0
      ],
      "name": "ADS-400_Head"
    },
    {
      "mesh": 3,
      "name": "ADS-400_Head_Placeable_0"
    },
    {
      "children": [
        12
      ],
      "matrix": [
        0.7071067657322371,
        1.4901160583224998e-08,
        0.7071067966408575,
        0.0,
        -1.490115968823944e-08,
        0.9999999999999999,
        -6.172263894432818e-09,
        0.0,
        -0.7071067966408575,
        -6.172261733746618e-09,
        0.7071067657322372,
        0.0,
        2.5,
        -5.960464477539063e-08,
        0.9999998807907104,
        1.0
      ],
      "name": "ADS-400_Gun"
    },
    {
      "mesh": 4,
      "name": "ADS-400_Gun_Placeable_0"
    }
  ],
  "samplers": [
    {
      "magFilter": 9728,
      "minFilter": 9728,
      "wrapS": 10497,
      "wrapT": 10497
    }
  ],
  "scene": 0,
  "scenes": [
    {
      "name": "Sketchfab_Scene",
      "nodes": [
        0
      ]
    }
  ],
  "textures": [
    {
      "sampler": 0,
      "source": 0
    },
    {
      "sampler": 0,
      "source": 1
    },
    {
      "sampler": 0,
      "source": 2
    }
  ]
}
