{
  "accessors": [
    {
      "bufferView": 2,
      "componentType": 5126,
      "count": 9629,
      "max": [
        9.330127716064453,
        8.330127716064453,
        24.600000381469727
      ],
      "min": [
        -9.330127716064453,
        -8.330127716064453,
        -1.0
      ],
      "type": "VEC3"
    },
    {
      "bufferView": 2,
      "byteOffset": 115548,
      "componentType": 5126,
      "count": 9629,
      "max": [
        1.0,
        1.0,
        1.0
      ],
      "min": [
        -1.0,
        -1.0,
        -1.0
      ],
      "type": "VEC3"
    },
    {
      "bufferView": 1,
      "componentType": 5126,
      "count": 9629,
      "max": [
        0.9846031665802002,
        0.984279453754425
      ],
      "min": [
        0.02654409408569336,
        0.012700676918029785
      ],
      "type": "VEC2"
    },
    {
      "bufferView": 0,
      "componentType": 5125,
      "count": 15048,
      "type": "SCALAR"
    },
    {
      "bufferView": 2,
      "byteOffset": 231096,
      "componentType": 5126,
      "count": 136,
      "max": [
        3.830127239227295,
        4.42264986038208,
        8.0
      ],
      "min": [
        -3.830127239227295,
        -4.42264986038208,
        4.0
      ],
      "type": "VEC3"
    },
    {
      "bufferView": 2,
      "byteOffset": 232728,
      "componentType": 5126,
      "count": 136,
      "max": [
        1.0,
        0.8660255074501038,
        1.0
      ],
      "min": [
        -1.0,
        -0.8660255074501038,
        -1.0
      ],
      "type": "VEC3"
    },
    {
      "bufferView": 1,
      "byteOffset": 77032,
      "componentType": 5126,
      "count": 136,
      "max": [
        1.0,
        0.9999999403953552
      ],
      "min": [
        0.0,
        0.0
      ],
      "type": "VEC2"
    },
    {
      "bufferView": 0,
      "byteOffset": 60192,
      "componentType": 5125,
      "count": 288,
      "type": "SCALAR"
    },
    {
      "bufferView": 2,
      "byteOffset": 234360,
      "componentType": 5126,
      "count": 540,
      "max": [
        2.236062526702881,
        2.1266000270843506,
        2.5
      ],
      "min": [
        -2.236062526702881,
        -2.1266000270843506,
        -2.5
      ],
      "type": "VEC3"
    },
    {
      "bufferView": 2,
      "byteOffset": 240840,
      "componentType": 5126,
      "count": 540,
      "max": [
        0.9822462201118469,
        0.9341715574264526,
        0.9822466373443604
      ],
      "min": [
        -0.9822462201118469,
        -0.9341715574264526,
        -0.9822466373443604
      ],
      "type": "VEC3"
    },
    {
      "bufferView": 1,
      "byteOffset": 78120,
      "componentType": 5126,
      "count": 540,
      "max": [
        0.981509804725647,
        0.9453425407409668
      ],
      "min": [
        0.38920390605926514,
        0.03198879957199097
      ],
      "type": "VEC2"
    },
    {
      "bufferView": 0,
      "byteOffset": 61344,
      "componentType": 5125,
      "count": 780,
      "type": "SCALAR"
    }
  ],
  "asset": {
    "extras": {
      "author": "MRowa (https://sketchfab.com/MRowa)",
      "license": "CC-BY-SA-4.0 (http://creativecommons.org/licenses/by-sa/4.0/)",
      "source": "https://sketchfab.com/3d-models/medium-power-node-cb01afd40dc74548a6cfff428a5a3da1",
      "title": "Medium Power Node"
    },
    "generator": "Sketchfab-12.66.0",
    "version": "2.0"
  },
  "bufferViews": [
    {
      "buffer": 0,
      "byteLength": 64464,
      "name": "floatBufferViews",
      "target": 34963
    },
    {
      "buffer": 0,
      "byteLength": 82440,
      "byteOffset": 64464,
      "byteStride": 8,
      "name": "floatBufferViews",
      "target": 34962
    },
    {
      "buffer": 0,
      "byteLength": 247320,
      "byteOffset": 146904,
      "byteStride": 12,
      "name": "floatBufferViews",
      "target": 34962
    }
  ],
  "buffers": [
    {
      "byteLength": 394224,
      "uri": "scene.bin"
    }
  ],
  "extensionsUsed": [
    "KHR_materials_transmission"
  ],
  "images": [
    {
      "uri": "textures/Placeable_baseColor.png"
    },
    {
      "uri": "textures/Placeable_metallicRoughness.png"
    },
    {
      "uri": "textures/Placeable_emissive.png"
    }
  ],
  "materials": [
    {
      "doubleSided": true,
      "emissiveFactor": [
        1.0,
        1.0,
        1.0
      ],
      "emissiveTexture": {
        "index": 2
      },
      "name": "Placeable",
      "pbrMetallicRoughness": {
        "baseColorTexture": {
          "index": 0
        },
        "metallicRoughnessTexture": {
          "index": 1
        },
        "roughnessFactor": 0.8040408205773457
      }
    },
    {
      "alphaMode": "BLEND",
      "doubleSided": true,
      "extensions": {
        "KHR_materials_transmission": {
          "transmissionFactor": 0.9
        }
      },
      "name": "Glass",
      "pbrMetallicRoughness": {
        "baseColorFactor": [
          0.8,
          0.8,
          0.8,
          0.25
        ],
        "metallicFactor": 0.0,
        "roughnessFactor": 0.8040408205773457
      }
    }
  ],
  "meshes": [
    {
      "name": "MediumPowerNode_Body_Placeable_0",
      "primitives": [
        {
          "attributes": {
            "NORMAL": 1,
            "POSITION": 0,
            "TEXCOORD_0": 2
          },
          "indices": 3,
          "material": 0,
          "mode": 4
        }
      ]
    },
    {
      "name": "MediumPowerNode_Glass_Glass_0",
      "primitives": [
        {
          "attributes": {
            "NORMAL": 5,
            "POSITION": 4,
            "TEXCOORD_0": 6
          },
          "indices": 7,
          "material": 1,
          "mode": 4
        }
      ]
    },
    {
      "name": "MediumPowerNode_Isosphere_Placeable_0",
      "primitives": [
        {
          "attributes": {
            "NORMAL": 9,
            "POSITION": 8,
            "TEXCOORD_0": 10
          },
          "indices": 11,
          "material": 0,
          "mode": 4
        }
      ]
    }
  ],
  "nodes": [
    {
      "children": [
        1
      ],
      "matrix": [
        1.0,
        0.0,
        0.0,
        0.0,
        0.0,
        2.220446049250313e-16,
        -1.0,
        0.0,
        0.0,
        1.0,
        2.220446049250313e-16,
        0.0,
        0.0,
        0.0,
        0.0,
        1.0
      ],
      "name": "Sketchfab_model"
    },
    {
      "children": [
        2
      ],
      "matrix": [
        1.0,
        0.0,
        0.0,
        0.0,
        0.0,
        0.0,
        1.0,
        0.0,
        0.0,
        -1.0,
        0.0,
        0.0,
        0.0,
        0.0,
        0.0,
        1.0
      ],
      "name": "1a17728b06454278a666eff89aafe199.fbx"
    },
    {
      "children": [
        3
      ],
      "name": "RootNode"
    },
    {
      "children": [
        4,
        6,
        8
      ],
      "matrix": [
        100.0,
        0.0,
        0.0,
        0.0,
        0.0,
        -1.629206793918314e-05,
        -99.99999999999868,
        0.0,
        0.0,
        99.99999999999868,
        -1.629206793918314e-05,
        0.0,
        0.0,
        0.0,
        0.0,
        1.0
      ],
      "name": "MediumPowerNode"
    },
    {
      "children": [
        5
      ],
      "matrix": [
        1.0,
        0.0,
        0.0,
        0.0,
        0.0,
        1.0,
        -2.646977960169688e-23,
        0.0,
        0.0,
        2.646977960169688e-23,
        1.0,
        0.0,
        0.0,
        2.6469779601696886e-23,
        1.0,
        1.0
      ],
      "name": "MediumPowerNode_Body"
    },
    {
      "mesh": 0,
      "name": "MediumPowerNode_Body_Placeable_0"
    },
    {
      "children": [
        7
      ],
      "matrix": [
        1.0,
        0.0,
        0.0,
        0.0,
        0.0,
        1.0,
        -2.646977960169688e-23,
        0.0,
        0.0,
        2.646977960169688e-23,
        1.0,
        0.0,
        0.0,
        2.6469779601696886e-23,
        1.0,
        1.0
      ],
      "name": "MediumPowerNode_Glass"
    },
    {
      "mesh": 1,
      "name": "MediumPowerNode_Glass_Glass_0"
    },
    {
      "children": [
        9
      ],
      "matrix": [
        2.0,
        0.0,
        0.0,
        0.0,
        0.0,
        2.0,
        -5.293955920339376e-23,
        0.0,
        0.0,
        5.293955920339376e-23,
        2.0,
        0.0,
        0.0,
        0.0,
        30.0,
        1.0
      ],
      "name": "MediumPowerNode_Isosphere"
    },
    {
      "mesh": 2,
      "name": "MediumPowerNode_Isosphere_Placeable_0"
    }
  ],
  "samplers": [
    {
      "magFilter": 9728,
      "minFilter": 9728,
      "wrapS": 10497,
      "wrapT": 10497
    }
  ],
  "scene": 0,
  "scenes": [
    {
      "name": "Sketchfab_Scene",
      "nodes": [
        0
      ]
    }
  ],
  "textures": [
    {
      "sampler": 0,
      "source": 0
    },
    {
      "sampler": 0,
      "source": 1
    },
    {
      "sampler": 0,
      "source": 2
    }
  ]
}
