{
  "accessors": [
    {
      "bufferView": 2,
      "componentType": 5126,
      "count": 7729,
      "max": [
        0.31964239478111267,
        1.7517300844192505,
        1.013726830482483
      ],
      "min": [
        -0.31964239478111267,
        -1.2000000476837158,
        0.07499998807907104
      ],
      "type": "VEC3"
    },
    {
      "bufferView": 2,
      "byteOffset": 92748,
      "componentType": 5126,
      "count": 7729,
      "max": [
        1.0,
        1.0,
        1.0
      ],
      "min": [
        -1.0,
        -1.0,
        -1.0
      ],
      "type": "VEC3"
    },
    {
      "bufferView": 1,
      "componentType": 5126,
      "count": 7729,
      "max": [
        0.9840497970581055,
        0.9874999523162842
      ],
      "min": [
        0.38749998807907104,
        0.012499988079071045
      ],
      "type": "VEC2"
    },
    {
      "bufferView": 0,
      "componentType": 5125,
      "count": 12201,
      "type": "SCALAR"
    },
    {
      "bufferView": 2,
      "byteOffset": 185496,
      "componentType": 5126,
      "count": 2505,
      "max": [
        0.3525294363498688,
        0.739992618560791,
        0.9955688118934631
      ],
      "min": [
        -0.3525294363498688,
        0.3436968922615051,
        0.6726202964782715
      ],
      "type": "VEC3"
    },
    {
      "bufferView": 2,
      "byteOffset": 215556,
      "componentType": 5126,
      "count": 2505,
      "max": [
        0.9998780488967896,
        0.9974839091300964,
        1.0
      ],
      "min": [
        -0.9998781085014343,
        -0.9978295564651489,
        -1.0
      ],
      "type": "VEC3"
    },
    {
      "bufferView": 1,
      "byteOffset": 61832,
      "componentType": 5126,
      "count": 2505,
      "max": [
        0.9822220802307129,
        0.8575000166893005
      ],
      "min": [
        0.0,
        0.0
      ],
      "type": "VEC2"
    },
    {
      "bufferView": 0,
      "byteOffset": 48804,
      "componentType": 5125,
      "count": 3786,
      "type": "SCALAR"
    },
    {
      "bufferView": 2,
      "byteOffset": 245616,
      "componentType": 5126,
      "count": 1130,
      "max": [
        0.2730344235897064,
        0.33420857787132263,
        0.8742441534996033
      ],
      "min": [
        -0.2730344235897064,
        -0.3451981842517853,
        0.266232967376709
      ],
      "type": "VEC3"
    },
    {
      "bufferView": 2,
      "byteOffset": 259176,
      "componentType": 5126,
      "count": 1130,
      "max": [
        0.999995768070221,
        0.9783263206481934,
        0.9976708889007568
      ],
      "min": [
        -0.999995768070221,
        -0.9941964149475098,
        -0.9974958300590515
      ],
      "type": "VEC3"
    },
    {
      "bufferView": 1,
      "byteOffset": 81872,
      "componentType": 5126,
      "count": 1130,
      "max": [
        0.8204013109207153,
        0.9864519834518433
      ],
      "min": [
        0.38749998807907104,
        0.26249998807907104
      ],
      "type": "VEC2"
    },
    {
      "bufferView": 0,
      "byteOffset": 63948,
      "componentType": 5125,
      "count": 1704,
      "type": "SCALAR"
    },
    {
      "bufferView": 2,
      "byteOffset": 272736,
      "componentType": 5126,
      "count": 1072,
      "max": [
        0.1659052073955536,
        -1.1920928955078125e-07,
        0.16590499877929688
      ],
      "min": [
        -0.16590516269207,
        -0.04000014066696167,
        -0.1659051477909088
      ],
      "type": "VEC3"
    },
    {
      "bufferView": 2,
      "byteOffset": 285600,
      "componentType": 5126,
      "count": 1072,
      "max": [
        0.997901439666748,
        1.0,
        0.9979022741317749
      ],
      "min": [
        -0.997901439666748,
        -1.0,
        -0.9979022741317749
      ],
      "type": "VEC3"
    },
    {
      "bufferView": 1,
      "byteOffset": 90912,
      "componentType": 5126,
      "count": 1072,
      "max": [
        0.862500011920929,
        0.987500011920929
      ],
      "min": [
        0.762499988079071,
        0.887499988079071
      ],
      "type": "VEC2"
    },
    {
      "bufferView": 0,
      "byteOffset": 70764,
      "componentType": 5125,
      "count": 1716,
      "type": "SCALAR"
    },
    {
      "bufferView": 2,
      "byteOffset": 298464,
      "componentType": 5126,
      "count": 552,
      "max": [
        0.4283750653266907,
        0.34979280829429626,
        0.4405190050601959
      ],
      "min": [
        -0.4283750653266907,
        -0.6894583702087402,
        0.2391938865184784
      ],
      "type": "VEC3"
    },
    {
      "bufferView": 2,
      "byteOffset": 305088,
      "componentType": 5126,
      "count": 552,
      "max": [
        0.9993709921836853,
        0.7808685898780823,
        0.9560458660125732
      ],
      "min": [
        -0.9993709921836853,
        -0.9626508951187134,
        -0.9921477437019348
      ],
      "type": "VEC3"
    },
    {
      "bufferView": 1,
      "byteOffset": 99488,
      "componentType": 5126,
      "count": 552,
      "max": [
        0.987500011920929,
        0.9874412417411804
      ],
      "min": [
        0.3875832259654999,
        0.012499988079071045
      ],
      "type": "VEC2"
    },
    {
      "bufferView": 0,
      "byteOffset": 77628,
      "componentType": 5125,
      "count": 816,
      "type": "SCALAR"
    }
  ],
  "asset": {
    "extras": {
      "author": "MRowa (https://sketchfab.com/MRowa)",
      "license": "CC-BY-SA-4.0 (http://creativecommons.org/licenses/by-sa/4.0/)",
      "source": "https://sketchfab.com/3d-models/ls-340-land-speeder-b147d3485e6d47bbbc1cb704fccbe27b",
      "title": "LS-340: Land Speeder"
    },
    "generator": "Sketchfab-12.66.0",
    "version": "2.0"
  },
  "bufferViews": [
    {
      "buffer": 0,
      "byteLength": 80892,
      "name": "floatBufferViews",
      "target": 34963
    },
    {
      "buffer": 0,
      "byteLength": 103904,
      "byteOffset": 80892,
      "byteStride": 8,
      "name": "floatBufferViews",
      "target": 34962
    },
    {
      "buffer": 0,
      "byteLength": 311712,
      "byteOffset": 184796,
      "byteStride": 12,
      "name": "floatBufferViews",
      "target": 34962
    }
  ],
  "buffers": [
    {
      "byteLength": 496508,
      "uri": "scene.bin"
    }
  ],
  "images": [
    {
      "uri": "textures/Placeable_baseColor.png"
    },
    {
      "uri": "textures/Placeable_metallicRoughness.png"
    },
    {
      "uri": "textures/Placeable_emissive.png"
    }
  ],
  "materials": [
    {
      "doubleSided": true,
      "emissiveFactor": [
        1.0,
        1.0,
        1.0
      ],
      "emissiveTexture": {
        "index": 2
      },
      "name": "Placeable",
      "pbrMetallicRoughness": {
        "baseColorTexture": {
          "index": 0
        },
        "metallicRoughnessTexture": {
          "index": 1
        },
        "roughnessFactor": 0.5
      }
    }
  ],
  "meshes": [
    {
      "name": "LS-340_Body_Placeable_0",
      "primitives": [
        {
          "attributes": {
            "NORMAL": 1,
            "POSITION": 0,
            "TEXCOORD_0": 2
          },
          "indices": 3,
          "material": 0,
          "mode": 4
        }
      ]
    },
    {
      "name": "LS-340_Control_Placeable_0",
      "primitives": [
        {
          "attributes": {
            "NORMAL": 5,
            "POSITION": 4,
            "TEXCOORD_0": 6
          },
          "indices": 7,
          "material": 0,
          "mode": 4
        }
      ]
    },
    {
      "name": "LS-340_Chair_Placeable_0",
      "primitives": [
        {
          "attributes": {
            "NORMAL": 9,
            "POSITION": 8,
            "TEXCOORD_0": 10
          },
          "indices": 11,
          "material": 0,
          "mode": 4
        }
      ]
    },
    {
      "name": "LS-340_Propeller_Placeable_0",
      "primitives": [
        {
          "attributes": {
            "NORMAL": 13,
            "POSITION": 12,
            "TEXCOORD_0": 14
          },
          "indices": 15,
          "material": 0,
          "mode": 4
        }
      ]
    },
    {
      "name": "LS-340_Wings_Placeable_0",
      "primitives": [
        {
          "attributes": {
            "NORMAL": 17,
            "POSITION": 16,
            "TEXCOORD_0": 18
          },
          "indices": 19,
          "material": 0,
          "mode": 4
        }
      ]
    }
  ],
  "nodes": [
    {
      "children": [
        1
      ],
      "matrix": [
        1.0,
        0.0,
        0.0,
        0.0,
        0.0,
        2.220446049250313e-16,
        -1.0,
        0.0,
        0.0,
        1.0,
        2.220446049250313e-16,
        0.0,
        0.0,
        0.0,
        0.0,
        1.0
      ],
      "name": "Sketchfab_model"
    },
    {
      "children": [
        2
      ],
      "matrix": [
        1.0,
        0.0,
        0.0,
        0.0,
        0.0,
        0.0,
        1.0,
        0.0,
        0.0,
        -1.0,
        0.0,
        0.0,
        0.0,
        0.0,
        0.0,
        1.0
      ],
      "name": "e23e5936a29a406e9a4a679007fe2787.fbx"
    },
    {
      "children": [
        3
      ],
      "name": "RootNode"
    },
    {
      "children": [
        4,
        6,
        8,
        10,
        12
      ],
      "matrix": [
        100.0,
        0.0,
        0.0,
        0.0,
        0.0,
        -1.629206793918314e-05,
        -99.99999999999868,
        0.0,
        0.0,
        99.99999999999868,
        -1.629206793918314e-05,
        0.0,
        0.0,
        0.0,
        0.0,
        1.0
      ],
      "name": "LandSpeeder-340"
    },
    {
      "children": [
        5
      ],
      "matrix": [
        1.0,
        0.0,
        0.0,
        0.0,
        0.0,
        1.0,
        -2.646977960169688e-23,
        0.0,
        0.0,
        2.646977960169688e-23,
        1.0,
        0.0,
        0.0,
        0.0,
        0.0,
        1.0
      ],
      "name": "LS-340_Body"
    },
    {
      "mesh": 0,
      "name": "LS-340_Body_Placeable_0"
    },
    {
      "children": [
        7
      ],
      "matrix": [
        1.0,
        0.0,
        0.0,
        0.0,
        0.0,
        1.0,
        -2.646977960169688e-23,
        0.0,
        0.0,
        2.646977960169688e-23,
        1.0,
        0.0,
        0.0,
        0.0,
        0.0,
        1.0
      ],
      "name": "LS-340_Control"
    },
    {
      "mesh": 1,
      "name": "LS-340_Control_Placeable_0"
    },
    {
      "children": [
        9
      ],
      "matrix": [
        0.9999999999999544,
        3.019916050561689e-07,
        0.0,
        0.0,
        -3.019916050561689e-07,
        0.9999999999999544,
        0.0,
        0.0,
        0.0,
        0.0,
        1.0,
        0.0,
        -1.9073486328125e-06,
        1.1665370464324951,
        0.19651100039482117,
        1.0
      ],
      "name": "LS-340_Chair"
    },
    {
      "mesh": 2,
      "name": "LS-340_Chair_Placeable_0"
    },
    {
      "children": [
        11
      ],
      "matrix": [
        1.0,
        0.0,
        0.0,
        0.0,
        0.0,
        1.0,
        -2.646977960169688e-23,
        0.0,
        0.0,
        2.646977960169688e-23,
        1.0,
        0.0,
        3.4924596548080444e-10,
        -0.9849998354911804,
        0.6000000238418579,
        1.0
      ],
      "name": "LS-340_Propeller"
    },
    {
      "mesh": 3,
      "name": "LS-340_Propeller_Placeable_0"
    },
    {
      "children": [
        13
      ],
      "matrix": [
        1.0,
        0.0,
        0.0,
        0.0,
        0.0,
        1.0,
        -2.646977960169688e-23,
        0.0,
        0.0,
        2.646977960169688e-23,
        1.0,
        0.0,
        0.0,
        1.5000001192092896,
        -0.10000000149011612,
        1.0
      ],
      "name": "LS-340_Wings"
    },
    {
      "mesh": 4,
      "name": "LS-340_Wings_Placeable_0"
    }
  ],
  "samplers": [
    {
      "magFilter": 9728,
      "minFilter": 9728,
      "wrapS": 10497,
      "wrapT": 10497
    }
  ],
  "scene": 0,
  "scenes": [
    {
      "name": "Sketchfab_Scene",
      "nodes": [
        0
      ]
    }
  ],
  "textures": [
    {
      "sampler": 0,
      "source": 0
    },
    {
      "sampler": 0,
      "source": 1
    },
    {
      "sampler": 0,
      "source": 2
    }
  ]
}
