{
  "accessors": [
    {
      "bufferView": 2,
      "componentType": 5126,
      "count": 1627,
      "max": [
        0.5110743641853333,
        0.518046498298645,
        0.04053320363163948
      ],
      "min": [
        -0.5091081261634827,
        -2.0764849185943604,
        -0.04053327441215515
      ],
      "type": "VEC3"
    },
    {
      "bufferView": 2,
      "byteOffset": 19524,
      "componentType": 5126,
      "count": 1627,
      "max": [
        1.0,
        1.0,
        1.0
      ],
      "min": [
        -1.0,
        -1.0,
        -1.0
      ],
      "type": "VEC3"
    },
    {
      "bufferView": 3,
      "componentType": 5126,
      "count": 1627,
      "max": [
        1.0,
        1.0,
        1.0,
        1.0
      ],
      "min": [
        -1.0,
        -1.0,
        -1.0,
        -1.0
      ],
      "type": "VEC4"
    },
    {
      "bufferView": 1,
      "componentType": 5126,
      "count": 1627,
      "max": [
        0.9996891617774963,
        0.8828948736190796
      ],
      "min": [
        0.0003108184027951211,
        0.0003107019292656332
      ],
      "type": "VEC2"
    },
    {
      "bufferView": 0,
      "componentType": 5125,
      "count": 5214,
      "type": "SCALAR"
    }
  ],
  "asset": {
    "extras": {
      "author": "RealityForge (https://sketchfab.com/shaunansari)",
      "license": "CC-BY-4.0 (http://creativecommons.org/licenses/by/4.0/)",
      "source": "https://sketchfab.com/3d-models/low-poly-key-ca5b38659d6a49428de0aaa5abf2f3f6",
      "title": "Low Poly Key"
    },
    "generator": "Sketchfab-15.38.0",
    "version": "2.0"
  },
  "bufferViews": [
    {
      "buffer": 0,
      "byteLength": 20856,
      "name": "floatBufferViews",
      "target": 34963
    },
    {
      "buffer": 0,
      "byteLength": 13016,
      "byteOffset": 20856,
      "byteStride": 8,
      "name": "floatBufferViews",
      "target": 34962
    },
    {
      "buffer": 0,
      "byteLength": 39048,
      "byteOffset": 33872,
      "byteStride": 12,
      "name": "floatBufferViews",
      "target": 34962
    },
    {
      "buffer": 0,
      "byteLength": 26032,
      "byteOffset": 72920,
      "byteStride": 16,
      "name": "floatBufferViews",
      "target": 34962
    }
  ],
  "buffers": [
    {
      "byteLength": 98952,
      "uri": "scene.bin"
    }
  ],
  "images": [
    {
      "uri": "textures/M_Key_baseColor.png"
    },
    {
      "uri": "textures/M_Key_metallicRoughness.png"
    },
    {
      "uri": "textures/M_Key_normal.png"
    }
  ],
  "materials": [
    {
      "doubleSided": true,
      "name": "M_Key",
      "normalTexture": {
        "index": 2
      },
      "pbrMetallicRoughness": {
        "baseColorTexture": {
          "index": 0
        },
        "metallicRoughnessTexture": {
          "index": 1
        }
      }
    }
  ],
  "meshes": [
    {
      "name": "Cylinder_M_Key_0",
      "primitives": [
        {
          "attributes": {
            "NORMAL": 1,
            "POSITION": 0,
            "TANGENT": 2,
            "TEXCOORD_0": 3
          },
          "indices": 4,
          "material": 0,
          "mode": 4
        }
      ]
    }
  ],
  "nodes": [
    {
      "children": [
        1
      ],
      "matrix": [
        1.0,
        0.0,
        0.0,
        0.0,
        0.0,
        2.220446049250313e-16,
        -1.0,
        0.0,
        0.0,
        1.0,
        2.220446049250313e-16,
        0.0,
        0.0,
        0.0,
        0.0,
        1.0
      ],
      "name": "Sketchfab_model"
    },
    {
      "children": [
        2
      ],
      "matrix": [
        0.009999999776482582,
        0.0,
        0.0,
        0.0,
        0.0,
        0.0,
        0.009999999776482582,
        0.0,
        0.0,
        -0.009999999776482582,
        0.0,
        0.0,
        0.0,
        0.0,
        0.0,
        1.0
      ],
      "name": "27706d8fcf514939bd409abab13b5b7b.fbx"
    },
    {
      "children": [
        3
      ],
      "name": "RootNode"
    },
    {
      "children": [
        4
      ],
      "matrix": [
        -0.0007434687342211532,
        99.99999999723627,
        -5.551115123125783e-15,
        0.0,
        4.371138995207247e-06,
        3.249622793077833e-11,
        -99.99999999999989,
        0.0,
        -99.99999999723616,
        -0.0007434687342378066,
        -4.371138984105016e-06,
        0.0,
        -1.0119957239311785e-16,
        0.4557623565196991,
        -57.42609405517578,
        1.0
      ],
      "name": "Cylinder"
    },
    {
      "mesh": 0,
      "name": "Cylinder_M_Key_0"
    }
  ],
  "samplers": [
    {
      "magFilter": 9729,
      "minFilter": 9987,
      "wrapS": 10497,
      "wrapT": 10497
    }
  ],
  "scene": 0,
  "scenes": [
    {
      "name": "Sketchfab_Scene",
      "nodes": [
        0
      ]
    }
  ],
  "textures": [
    {
      "sampler": 0,
      "source": 0
    },
    {
      "sampler": 0,
      "source": 1
    },
    {
      "sampler": 0,
      "source": 2
    }
  ]
}
