{
  "accessors": [
    {
      "bufferView": 2,
      "componentType": 5126,
      "count": 2072,
      "max": [
        2.4315638542175293,
        4.863407135009766,
        3.0131683349609375
      ],
      "min": [
        -4.3429179191589355,
        0.03226757049560547,
        -3.0457115173339844
      ],
      "type": "VEC3"
    },
    {
      "bufferView": 2,
      "byteOffset": 24864,
      "componentType": 5126,
      "count": 2072,
      "max": [
        1.0,
        1.0,
        1.0
      ],
      "min": [
        -1.0,
        -1.0,
        -1.0
      ],
      "type": "VEC3"
    },
    {
      "bufferView": 3,
      "componentType": 5126,
      "count": 2072,
      "max": [
        1.0,
        1.0,
        0.9998834133148193,
        1.0
      ],
      "min": [
        -1.0,
        -1.0,
        -0.9998834133148193,
        -1.0
      ],
      "type": "VEC4"
    },
    {
      "bufferView": 1,
      "componentType": 5126,
      "count": 2072,
      "max": [
        0.9932070374488831,
        0.9821966886520386
      ],
      "min": [
        0.011288940906524658,
        0.005675554275512695
      ],
      "type": "VEC2"
    },
    {
      "bufferView": 0,
      "componentType": 5125,
      "count": 4980,
      "type": "SCALAR"
    },
    {
      "bufferView": 2,
      "byteOffset": 49728,
      "componentType": 5126,
      "count": 16981,
      "max": [
        3.7462329864501953,
        7.75121545791626,
        6.825214385986328
      ],
      "min": [
        -3.56135892868042,
        5.834142208099365,
        -6.828346252441406
      ],
      "type": "VEC3"
    },
    {
      "bufferView": 2,
      "byteOffset": 253500,
      "componentType": 5126,
      "count": 16981,
      "max": [
        1.0,
        1.0,
        1.0
      ],
      "min": [
        -1.0,
        -1.0,
        -1.0
      ],
      "type": "VEC3"
    },
    {
      "bufferView": 3,
      "byteOffset": 33152,
      "componentType": 5126,
      "count": 16981,
      "max": [
        1.0,
        1.0,
        1.0,
        1.0
      ],
      "min": [
        -1.0,
        -1.0,
        -1.0,
        -1.0
      ],
      "type": "VEC4"
    },
    {
      "bufferView": 1,
      "byteOffset": 16576,
      "componentType": 5126,
      "count": 16981,
      "max": [
        0.9889160394668579,
        0.9945430755615234
      ],
      "min": [
        0.00921812653541565,
        0.00748308002948761
      ],
      "type": "VEC2"
    },
    {
      "bufferView": 0,
      "byteOffset": 19920,
      "componentType": 5125,
      "count": 50424,
      "type": "SCALAR"
    },
    {
      "bufferView": 2,
      "byteOffset": 457272,
      "componentType": 5126,
      "count": 2196,
      "max": [
        2.778446674346924,
        10.457115173339844,
        3.1067161560058594
      ],
      "min": [
        -3.74625825881958,
        4.478259563446045,
        -3.1334190368652344
      ],
      "type": "VEC3"
    },
    {
      "bufferView": 2,
      "byteOffset": 483624,
      "componentType": 5126,
      "count": 2196,
      "max": [
        1.0,
        0.999999463558197,
        1.0
      ],
      "min": [
        -1.0,
        -1.0,
        -1.0
      ],
      "type": "VEC3"
    },
    {
      "bufferView": 3,
      "byteOffset": 304848,
      "componentType": 5126,
      "count": 2196,
      "max": [
        0.9999975562095642,
        1.0,
        0.9999998807907104,
        1.0
      ],
      "min": [
        -0.9999997019767761,
        -0.9999712109565735,
        -1.0,
        -1.0
      ],
      "type": "VEC4"
    },
    {
      "bufferView": 1,
      "byteOffset": 152424,
      "componentType": 5126,
      "count": 2196,
      "max": [
        0.9922981262207031,
        0.9928275942802429
      ],
      "min": [
        0.004686534404754639,
        0.009758323431015015
      ],
      "type": "VEC2"
    },
    {
      "bufferView": 0,
      "byteOffset": 221616,
      "componentType": 5125,
      "count": 7158,
      "type": "SCALAR"
    }
  ],
  "asset": {
    "extras": {
      "author": "3D Wizard (https://sketchfab.com/3DGandalf)",
      "license": "CC-BY-4.0 (http://creativecommons.org/licenses/by/4.0/)",
      "source": "https://sketchfab.com/3d-models/sci-fi-turret-212922522bc34e32878abe73579c4927",
      "title": "Sci-Fi Turret"
    },
    "generator": "Sketchfab-12.65.0",
    "version": "2.0"
  },
  "bufferViews": [
    {
      "buffer": 0,
      "byteLength": 250248,
      "name": "floatBufferViews",
      "target": 34963
    },
    {
      "buffer": 0,
      "byteLength": 169992,
      "byteOffset": 250248,
      "byteStride": 8,
      "name": "floatBufferViews",
      "target": 34962
    },
    {
      "buffer": 0,
      "byteLength": 509976,
      "byteOffset": 420240,
      "byteStride": 12,
      "name": "floatBufferViews",
      "target": 34962
    },
    {
      "buffer": 0,
      "byteLength": 339984,
      "byteOffset": 930216,
      "byteStride": 16,
      "name": "floatBufferViews",
      "target": 34962
    }
  ],
  "buffers": [
    {
      "byteLength": 1270200,
      "uri": "scene.bin"
    }
  ],
  "images": [
    {
      "uri": "textures/TurretStand_baseColor.png"
    },
    {
      "uri": "textures/TurretStand_metallicRoughness.png"
    },
    {
      "uri": "textures/TurretStand_emissive.png"
    },
    {
      "uri": "textures/TurretStand_normal.png"
    },
    {
      "uri": "textures/SideTurrets_baseColor.png"
    },
    {
      "uri": "textures/SideTurrets_metallicRoughness.png"
    },
    {
      "uri": "textures/SideTurrets_emissive.png"
    },
    {
      "uri": "textures/SideTurrets_normal.png"
    },
    {
      "uri": "textures/MainBody_baseColor.png"
    },
    {
      "uri": "textures/MainBody_metallicRoughness.png"
    },
    {
      "uri": "textures/MainBody_emissive.png"
    },
    {
      "uri": "textures/MainBody_normal.png"
    }
  ],
  "materials": [
    {
      "doubleSided": true,
      "emissiveTexture": {
        "index": 2
      },
      "name": "TurretStand",
      "normalTexture": {
        "index": 3
      },
      "pbrMetallicRoughness": {
        "baseColorTexture": {
          "index": 0
        },
        "metallicRoughnessTexture": {
          "index": 1
        }
      }
    },
    {
      "doubleSided": true,
      "emissiveFactor": [
        1.0,
        1.0,
        1.0
      ],
      "emissiveTexture": {
        "index": 6
      },
      "name": "SideTurrets",
      "normalTexture": {
        "index": 7
      },
      "pbrMetallicRoughness": {
        "baseColorTexture": {
          "index": 4
        },
        "metallicRoughnessTexture": {
          "index": 5
        }
      }
    },
    {
      "doubleSided": true,
      "emissiveFactor": [
        1.0,
        1.0,
        1.0
      ],
      "emissiveTexture": {
        "index": 10
      },
      "name": "MainBody",
      "normalTexture": {
        "index": 11
      },
      "pbrMetallicRoughness": {
        "baseColorTexture": {
          "index": 8
        },
        "metallicRoughnessTexture": {
          "index": 9
        }
      }
    }
  ],
  "meshes": [
    {
      "name": "polySurface1308_TurretStand_0",
      "primitives": [
        {
          "attributes": {
            "NORMAL": 1,
            "POSITION": 0,
            "TANGENT": 2,
            "TEXCOORD_0": 3
          },
          "indices": 4,
          "material": 0,
          "mode": 4
        }
      ]
    },
    {
      "name": "polySurface1323_SideTurrets_0",
      "primitives": [
        {
          "attributes": {
            "NORMAL": 6,
            "POSITION": 5,
            "TANGENT": 7,
            "TEXCOORD_0": 8
          },
          "indices": 9,
          "material": 1,
          "mode": 4
        }
      ]
    },
    {
      "name": "polySurface1323_MainBody_0",
      "primitives": [
        {
          "attributes": {
            "NORMAL": 11,
            "POSITION": 10,
            "TANGENT": 12,
            "TEXCOORD_0": 13
          },
          "indices": 14,
          "material": 2,
          "mode": 4
        }
      ]
    }
  ],
  "nodes": [
    {
      "children": [
        1
      ],
      "matrix": [
        17.96766471862793,
        0.0,
        0.0,
        0.0,
        0.0,
        3.9896230138731625e-15,
        -17.96766471862793,
        0.0,
        0.0,
        17.96766471862793,
        3.9896230138731625e-15,
        0.0,
        0.0,
        0.0,
        0.0,
        1.0
      ],
      "name": "Sketchfab_model"
    },
    {
      "children": [
        2
      ],
      "matrix": [
        0.009999999776482582,
        0.0,
        0.0,
        0.0,
        0.0,
        0.0,
        0.009999999776482582,
        0.0,
        0.0,
        -0.009999999776482582,
        0.0,
        0.0,
        0.0,
        0.0,
        0.0,
        1.0
      ],
      "name": "cf185054f0a742c2bdf147c0ab297aa3.fbx"
    },
    {
      "children": [
        3,
        5
      ],
      "name": "RootNode"
    },
    {
      "children": [
        4
      ],
      "name": "polySurface1308"
    },
    {
      "mesh": 0,
      "name": "polySurface1308_TurretStand_0"
    },
    {
      "children": [
        6,
        7
      ],
      "name": "polySurface1323"
    },
    {
      "mesh": 1,
      "name": "polySurface1323_SideTurrets_0"
    },
    {
      "mesh": 2,
      "name": "polySurface1323_MainBody_0"
    }
  ],
  "samplers": [
    {
      "magFilter": 9729,
      "minFilter": 9987,
      "wrapS": 10497,
      "wrapT": 10497
    }
  ],
  "scene": 0,
  "scenes": [
    {
      "name": "Sketchfab_Scene",
      "nodes": [
        0
      ]
    }
  ],
  "textures": [
    {
      "sampler": 0,
      "source": 0
    },
    {
      "sampler": 0,
      "source": 1
    },
    {
      "sampler": 0,
      "source": 2
    },
    {
      "sampler": 0,
      "source": 3
    },
    {
      "sampler": 0,
      "source": 4
    },
    {
      "sampler": 0,
      "source": 5
    },
    {
      "sampler": 0,
      "source": 6
    },
    {
      "sampler": 0,
      "source": 7
    },
    {
      "sampler": 0,
      "source": 8
    },
    {
      "sampler": 0,
      "source": 9
    },
    {
      "sampler": 0,
      "source": 10
    },
    {
      "sampler": 0,
      "source": 11
    }
  ]
}
